# Blender 5.1.1
# www.blender.org
mtllib fancy_picture_frame_01_1k.mtl
o fancy_picture_frame_01
v 0.292240 0.224121 0.021892
v 0.300764 0.231396 0.021892
v 0.274800 0.205409 0.016695
v 0.282583 0.214206 0.015996
v 0.287412 0.219309 0.020843
v 0.283811 0.215461 0.017228
v 0.265629 0.196125 0.012607
v 0.265397 0.195741 0.008232
v 0.261330 0.191968 0.008232
v 0.261330 0.191968 0.005225
v 0.265455 0.195837 0.009329
v 0.261330 0.191968 0.007427
v 0.266249 0.196753 0.012884
v 0.300764 0.231396 0.001899
v 0.260331 0.195837 0.009329
v 0.260273 0.195741 0.008232
v 0.259840 0.192427 0.007427
v 0.259840 0.192427 0.005225
v 0.277459 0.214206 0.015996
v 0.269676 0.205409 0.016695
v 0.295610 0.232063 0.021892
v 0.287117 0.224121 0.021892
v 0.259840 0.192427 0.008232
v 0.261125 0.196753 0.012884
v 0.282288 0.219309 0.020843
v 0.278687 0.215461 0.017228
v 0.260505 0.196125 0.012607
v 0.295610 0.232063 0.001899
v 0.301515 0.227175 0.021892
v 0.292240 0.219233 0.021892
v 0.265397 0.190852 0.008232
v 0.265629 0.191237 0.012607
v 0.283811 0.210573 0.017228
v 0.287412 0.214421 0.020843
v 0.282583 0.209318 0.015996
v 0.261878 0.190490 0.008232
v 0.274800 0.200521 0.016695
v 0.261878 0.190490 0.005225
v 0.265455 0.190949 0.009329
v 0.261878 0.190490 0.007427
v 0.266249 0.191865 0.012884
v 0.301515 0.227175 0.001899
v 0.300764 0.231396 0.019927
v 0.295610 0.232063 0.019927
v 0.301515 0.227175 0.019927
v 0.299322 0.230161 0.021892
v 0.294172 0.230828 0.021892
v 0.300073 0.225940 0.021892
v 0.292240 0.189887 0.021892
v 0.265397 0.165305 0.008232
v 0.283811 0.182386 0.017228
v 0.282583 0.181299 0.015996
v 0.261878 0.162480 0.008232
v 0.261878 0.162480 0.005225
v 0.265455 0.165389 0.009329
v 0.261878 0.162480 0.007427
v 0.266249 0.166182 0.012884
v 0.301496 0.196766 0.021892
v 0.265629 0.165638 0.012607
v 0.287412 0.185719 0.020843
v 0.274800 0.173680 0.016695
v 0.301496 0.196766 0.001899
v 0.301496 0.196766 0.019927
v 0.300057 0.195696 0.021892
v 0.228833 0.195837 0.009329
v 0.225698 0.192427 0.007427
v 0.243889 0.214206 0.015996
v 0.259844 0.232063 0.021892
v 0.248134 0.219309 0.020843
v 0.228986 0.196125 0.012607
v 0.259844 0.232063 0.001899
v 0.228782 0.195741 0.008232
v 0.225698 0.192427 0.005225
v 0.237048 0.205409 0.016695
v 0.252378 0.224121 0.021892
v 0.225698 0.192427 0.008232
v 0.229531 0.196753 0.012884
v 0.244968 0.215461 0.017228
v 0.259844 0.232063 0.019927
v 0.258580 0.230828 0.021892
v 0.263481 0.192594 0.001899
v 0.257577 0.192594 0.001899
v 0.263481 0.187706 0.001899
v 0.263477 0.180947 0.001899
v 0.221810 0.192594 0.001899
v 0.257326 0.229450 0.001899
v 0.298977 0.194152 0.001899
v 0.298997 0.224562 0.001899
v 0.293092 0.229450 0.001899
v 0.298246 0.228782 0.001899
v 0.300764 0.231396 0.003725
v 0.295610 0.232063 0.003725
v 0.301515 0.227175 0.003725
v 0.301496 0.196766 0.003725
v 0.259844 0.232063 0.003725
v 0.257577 0.179471 0.001899
v 0.221810 0.179471 0.001899
v 0.221810 0.186094 0.001899
v 0.257577 0.186094 0.001899
v -0.292240 0.224121 0.021892
v -0.300764 0.231396 0.021892
v -0.274800 0.205409 0.016695
v -0.282583 0.214206 0.015996
v -0.287412 0.219309 0.020843
v -0.283811 0.215461 0.017228
v -0.265629 0.196125 0.012607
v -0.265397 0.195741 0.008232
v -0.261330 0.191968 0.008232
v -0.261330 0.191968 0.005225
v -0.265455 0.195837 0.009329
v -0.261330 0.191968 0.007427
v -0.266249 0.196753 0.012884
v 0.000000 0.224121 0.021892
v 0.000000 0.232063 0.021892
v 0.000000 0.205409 0.016695
v 0.000000 0.214206 0.015996
v 0.000000 0.219309 0.020843
v 0.000000 0.215461 0.017228
v 0.000000 0.196125 0.012607
v 0.000000 0.195741 0.008232
v 0.000000 0.192427 0.008232
v 0.000000 0.192427 0.005225
v 0.000000 0.195837 0.009329
v 0.000000 0.192427 0.007427
v 0.000000 0.196753 0.012884
v -0.300764 0.231396 0.001899
v 0.000000 0.232063 0.001899
v -0.260331 0.195837 0.009329
v -0.260273 0.195741 0.008232
v -0.259840 0.192427 0.007427
v -0.259840 0.192427 0.005225
v -0.277459 0.214206 0.015996
v -0.269676 0.205409 0.016695
v -0.295610 0.232063 0.021892
v -0.287117 0.224121 0.021892
v -0.259840 0.192427 0.008232
v -0.261125 0.196753 0.012884
v -0.282288 0.219309 0.020843
v -0.278687 0.215461 0.017228
v -0.260505 0.196125 0.012607
v -0.295610 0.232063 0.001899
v -0.301515 0.227175 0.021892
v -0.292240 0.219233 0.021892
v -0.265397 0.190852 0.008232
v -0.265629 0.191237 0.012607
v -0.283811 0.210573 0.017228
v -0.287412 0.214421 0.020843
v -0.282583 0.209318 0.015996
v -0.261878 0.190490 0.008232
v -0.274800 0.200521 0.016695
v -0.261878 0.190490 0.005225
v -0.265455 0.190949 0.009329
v -0.261878 0.190490 0.007427
v -0.266249 0.191865 0.012884
v -0.301515 0.227175 0.001899
v -0.300764 0.231396 0.019927
v 0.000000 0.232063 0.019927
v -0.295610 0.232063 0.019927
v -0.301515 0.227175 0.019927
v -0.299322 0.230161 0.021892
v 0.000000 0.230828 0.021892
v -0.294172 0.230828 0.021892
v -0.300073 0.225940 0.021892
v -0.292240 0.189887 0.021892
v -0.265397 0.165305 0.008232
v -0.283811 0.182386 0.017228
v -0.282583 0.181299 0.015996
v -0.261878 0.162480 0.008232
v -0.261878 0.162480 0.005225
v -0.265455 0.165389 0.009329
v -0.261878 0.162480 0.007427
v -0.266249 0.166182 0.012884
v -0.301496 0.196766 0.021892
v -0.265629 0.165638 0.012607
v -0.287412 0.185719 0.020843
v -0.274800 0.173680 0.016695
v -0.301496 0.196766 0.001899
v -0.301496 0.196766 0.019927
v -0.300057 0.195696 0.021892
v -0.228833 0.195837 0.009329
v -0.225698 0.192427 0.007427
v -0.243889 0.214206 0.015996
v -0.259844 0.232063 0.021892
v -0.248134 0.219309 0.020843
v -0.228986 0.196125 0.012607
v -0.259844 0.232063 0.001899
v -0.228782 0.195741 0.008232
v -0.225698 0.192427 0.005225
v -0.237048 0.205409 0.016695
v -0.252378 0.224121 0.021892
v -0.225698 0.192427 0.008232
v -0.229531 0.196753 0.012884
v -0.244968 0.215461 0.017228
v -0.259844 0.232063 0.019927
v -0.258580 0.230828 0.021892
v -0.263481 0.192594 0.001899
v 0.000000 0.192594 0.001899
v -0.257577 0.192594 0.001899
v -0.263481 0.187706 0.001899
v -0.263477 0.180947 0.001899
v -0.221810 0.192594 0.001899
v -0.257326 0.229450 0.001899
v 0.000000 0.229450 0.001899
v -0.298977 0.194152 0.001899
v -0.298997 0.224562 0.001899
v -0.293092 0.229450 0.001899
v -0.298246 0.228782 0.001899
v -0.300764 0.231396 0.003725
v -0.295610 0.232063 0.003725
v -0.301515 0.227175 0.003725
v 0.000000 0.232063 0.003725
v -0.301496 0.196766 0.003725
v -0.259844 0.232063 0.003725
v -0.257577 0.179471 0.001899
v -0.221810 0.179471 0.001899
v -0.221810 0.186094 0.001899
v -0.257577 0.186094 0.001899
v 0.000000 0.179471 0.001899
v 0.000000 0.186094 0.001899
v 0.301371 0.000000 0.021892
v 0.292240 0.000000 0.021892
v 0.292240 -0.224121 0.021892
v 0.300764 -0.231396 0.021892
v 0.274800 -0.205409 0.016695
v 0.282583 -0.214206 0.015996
v 0.287412 -0.219309 0.020843
v 0.283811 -0.215461 0.017228
v 0.265629 -0.196125 0.012607
v 0.265397 -0.195741 0.008232
v 0.261330 -0.191968 0.008232
v 0.274800 0.000000 0.016695
v 0.282583 0.000000 0.015996
v 0.287412 0.000000 0.020843
v 0.283811 0.000000 0.017228
v 0.265629 0.000000 0.012607
v 0.265397 0.000000 0.008232
v 0.261878 0.000000 0.008232
v 0.261330 -0.191968 0.005225
v 0.261878 0.000000 0.005225
v 0.265455 -0.195837 0.009329
v 0.265455 0.000000 0.009329
v 0.261330 -0.191968 0.007427
v 0.261878 0.000000 0.007427
v 0.266249 -0.196753 0.012884
v 0.266249 0.000000 0.012884
v 0.301371 0.000000 0.001899
v 0.300764 -0.231396 0.001899
v 0.260331 -0.195837 0.009329
v 0.260273 -0.195741 0.008232
v 0.259840 -0.192427 0.007427
v 0.259840 -0.192427 0.005225
v 0.277459 -0.214206 0.015996
v 0.269676 -0.205409 0.016695
v 0.295610 -0.232063 0.021892
v 0.287117 -0.224121 0.021892
v 0.259840 -0.192427 0.008232
v 0.261125 -0.196753 0.012884
v 0.282288 -0.219309 0.020843
v 0.278687 -0.215461 0.017228
v 0.260505 -0.196125 0.012607
v 0.295610 -0.232063 0.001899
v 0.301515 -0.227175 0.021892
v 0.292240 -0.219233 0.021892
v 0.265397 -0.190852 0.008232
v 0.265629 -0.191237 0.012607
v 0.283811 -0.210573 0.017228
v 0.287412 -0.214421 0.020843
v 0.282583 -0.209318 0.015996
v 0.261878 -0.190490 0.008232
v 0.274800 -0.200521 0.016695
v 0.261878 -0.190490 0.005225
v 0.265455 -0.190949 0.009329
v 0.261878 -0.190490 0.007427
v 0.266249 -0.191865 0.012884
v 0.301515 -0.227175 0.001899
v 0.300764 -0.231396 0.019928
v 0.301371 0.000000 0.019927
v 0.295610 -0.232063 0.019928
v 0.301515 -0.227175 0.019928
v 0.299951 0.000000 0.021892
v 0.299322 -0.230161 0.021892
v 0.294172 -0.230829 0.021892
v 0.300073 -0.225940 0.021892
v 0.292240 -0.189887 0.021892
v 0.265397 -0.165305 0.008232
v 0.283811 -0.182386 0.017228
v 0.282583 -0.181299 0.015996
v 0.261878 -0.162480 0.008232
v 0.261878 -0.162480 0.005225
v 0.265455 -0.165389 0.009329
v 0.261878 -0.162480 0.007427
v 0.266249 -0.166182 0.012884
v 0.301496 -0.196766 0.021892
v 0.265629 -0.165638 0.012607
v 0.287412 -0.185719 0.020843
v 0.274800 -0.173680 0.016695
v 0.301496 -0.196766 0.001899
v 0.301496 -0.196766 0.019928
v 0.300057 -0.195696 0.021892
v 0.228833 -0.195837 0.009329
v 0.225698 -0.192427 0.007427
v 0.243889 -0.214206 0.015996
v 0.259844 -0.232063 0.021892
v 0.248134 -0.219309 0.020843
v 0.228986 -0.196125 0.012607
v 0.259844 -0.232063 0.001899
v 0.228782 -0.195741 0.008232
v 0.225698 -0.192427 0.005225
v 0.237048 -0.205409 0.016695
v 0.252378 -0.224121 0.021892
v 0.225698 -0.192427 0.008232
v 0.229531 -0.196753 0.012884
v 0.244968 -0.215461 0.017228
v 0.259844 -0.232063 0.019928
v 0.258580 -0.230829 0.021892
v 0.263337 0.000000 0.001899
v 0.263481 -0.192594 0.001899
v 0.257577 -0.192594 0.001899
v 0.263481 -0.187706 0.001899
v 0.263477 -0.180947 0.001899
v 0.221810 -0.192594 0.001899
v 0.257326 -0.229450 0.001899
v 0.298977 -0.194152 0.001899
v 0.298997 -0.224562 0.001899
v 0.293092 -0.229450 0.001899
v 0.298852 0.000000 0.001899
v 0.298246 -0.228782 0.001899
v 0.300764 -0.231396 0.003725
v 0.301371 0.000000 0.003725
v 0.295610 -0.232063 0.003725
v 0.301515 -0.227175 0.003725
v 0.301496 -0.196766 0.003725
v 0.259844 -0.232063 0.003725
v 0.257577 0.000000 0.001899
v 0.221810 0.000000 0.001899
v 0.257577 -0.179471 0.001899
v 0.221810 -0.179471 0.001899
v 0.221810 -0.186094 0.001899
v 0.257577 -0.186094 0.001899
v -0.301371 0.000000 0.021892
v -0.292240 0.000000 0.021892
v -0.292240 -0.224121 0.021892
v -0.300764 -0.231396 0.021892
v -0.274800 -0.205409 0.016695
v -0.282583 -0.214206 0.015996
v -0.287412 -0.219309 0.020843
v -0.283811 -0.215461 0.017228
v -0.265629 -0.196125 0.012607
v -0.265397 -0.195741 0.008232
v -0.261330 -0.191968 0.008232
v -0.274800 0.000000 0.016695
v -0.282583 0.000000 0.015996
v -0.287412 0.000000 0.020843
v -0.283811 0.000000 0.017228
v -0.265629 0.000000 0.012607
v -0.265397 0.000000 0.008232
v -0.261878 0.000000 0.008232
v -0.261330 -0.191968 0.005225
v -0.261878 0.000000 0.005225
v -0.265455 -0.195837 0.009329
v -0.265455 0.000000 0.009329
v -0.261330 -0.191968 0.007427
v -0.261878 0.000000 0.007427
v -0.266249 -0.196753 0.012884
v -0.266249 0.000000 0.012884
v -0.000000 -0.224121 0.021892
v -0.000000 -0.232063 0.021892
v -0.000000 -0.205409 0.016695
v -0.000000 -0.214206 0.015996
v -0.000000 -0.219309 0.020843
v -0.000000 -0.215461 0.017228
v -0.000000 -0.196125 0.012607
v -0.000000 -0.195741 0.008232
v -0.000000 -0.192427 0.008232
v -0.000000 -0.192427 0.005225
v -0.000000 -0.195837 0.009329
v -0.000000 -0.192427 0.007427
v -0.000000 -0.196753 0.012884
v -0.301371 0.000000 0.001899
v -0.300764 -0.231396 0.001899
v -0.000000 -0.232063 0.001899
v -0.260331 -0.195837 0.009329
v -0.260273 -0.195741 0.008232
v -0.259840 -0.192427 0.007427
v -0.259840 -0.192427 0.005225
v -0.277459 -0.214206 0.015996
v -0.269676 -0.205409 0.016695
v -0.295610 -0.232063 0.021892
v -0.287117 -0.224121 0.021892
v -0.259840 -0.192427 0.008232
v -0.261125 -0.196753 0.012884
v -0.282288 -0.219309 0.020843
v -0.278687 -0.215461 0.017228
v -0.260505 -0.196125 0.012607
v -0.295610 -0.232063 0.001899
v -0.301515 -0.227175 0.021892
v -0.292240 -0.219233 0.021892
v -0.265397 -0.190852 0.008232
v -0.265629 -0.191237 0.012607
v -0.283811 -0.210573 0.017228
v -0.287412 -0.214421 0.020843
v -0.282583 -0.209318 0.015996
v -0.261878 -0.190490 0.008232
v -0.274800 -0.200521 0.016695
v -0.261878 -0.190490 0.005225
v -0.265455 -0.190949 0.009329
v -0.261878 -0.190490 0.007427
v -0.266249 -0.191865 0.012884
v -0.301515 -0.227175 0.001899
v -0.300764 -0.231396 0.019928
v -0.000000 -0.232063 0.019928
v -0.301371 0.000000 0.019927
v -0.295610 -0.232063 0.019928
v -0.301515 -0.227175 0.019928
v -0.299951 0.000000 0.021892
v -0.299322 -0.230161 0.021892
v -0.000000 -0.230829 0.021892
v -0.294172 -0.230829 0.021892
v -0.300073 -0.225940 0.021892
v -0.292240 -0.189887 0.021892
v -0.265397 -0.165305 0.008232
v -0.283811 -0.182386 0.017228
v -0.282583 -0.181299 0.015996
v -0.261878 -0.162480 0.008232
v -0.261878 -0.162480 0.005225
v -0.265455 -0.165389 0.009329
v -0.261878 -0.162480 0.007427
v -0.266249 -0.166182 0.012884
v -0.301496 -0.196766 0.021892
v -0.265629 -0.165638 0.012607
v -0.287412 -0.185719 0.020843
v -0.274800 -0.173680 0.016695
v -0.301496 -0.196766 0.001899
v -0.301496 -0.196766 0.019928
v -0.300057 -0.195696 0.021892
v -0.228833 -0.195837 0.009329
v -0.225698 -0.192427 0.007427
v -0.243889 -0.214206 0.015996
v -0.259844 -0.232063 0.021892
v -0.248134 -0.219309 0.020843
v -0.228986 -0.196125 0.012607
v -0.259844 -0.232063 0.001899
v -0.228782 -0.195741 0.008232
v -0.225698 -0.192427 0.005225
v -0.237048 -0.205409 0.016695
v -0.252378 -0.224121 0.021892
v -0.225698 -0.192427 0.008232
v -0.229531 -0.196753 0.012884
v -0.244968 -0.215461 0.017228
v -0.259844 -0.232063 0.019928
v -0.258580 -0.230829 0.021892
v -0.263337 0.000000 0.001899
v -0.263481 -0.192594 0.001899
v -0.000000 -0.192594 0.001899
v -0.257577 -0.192594 0.001899
v -0.263481 -0.187706 0.001899
v -0.263477 -0.180947 0.001899
v -0.221810 -0.192594 0.001899
v -0.257326 -0.229450 0.001899
v -0.000000 -0.229450 0.001899
v -0.298977 -0.194152 0.001899
v -0.298997 -0.224562 0.001899
v -0.293092 -0.229450 0.001899
v -0.298852 0.000000 0.001899
v -0.298246 -0.228782 0.001899
v -0.300764 -0.231396 0.003725
v -0.301371 0.000000 0.003725
v -0.295610 -0.232063 0.003725
v -0.301515 -0.227175 0.003725
v -0.000000 -0.232063 0.003725
v -0.301496 -0.196766 0.003725
v -0.259844 -0.232063 0.003725
v -0.257577 0.000000 0.001899
v -0.221810 0.000000 0.001899
v -0.257577 -0.179471 0.001899
v -0.221810 -0.179471 0.001899
v -0.221810 -0.186094 0.001899
v -0.257577 -0.186094 0.001899
v 0.000000 0.000000 0.001899
v -0.000000 -0.179471 0.001899
v -0.000000 -0.186094 0.001899
vn -0.0817 -0.0000 0.9967
vn -0.0000 -0.0000 1.0000
vn -0.2936 -0.0000 0.9559
vn -0.9986 -0.0000 0.0530
vn -0.7084 -0.0000 0.7058
vn -0.4816 -0.0000 0.8764
vn -0.4814 -0.0000 0.8765
vn -0.0623 -0.0000 0.9981
vn -0.2230 -0.0000 0.9748
vn -0.2956 -0.0000 0.9553
vn -0.9758 -0.0000 0.2185
vn -0.4070 -0.0000 0.9134
vn -0.4071 -0.0000 0.9134
vn -0.1816 -0.0000 0.9834
vn -0.0819 -0.0000 0.9966
vn -0.2485 -0.2605 0.9330
vn -0.4820 -0.0000 0.8762
vn -0.6888 -0.7250 -0.0000
vn -0.9998 -0.0187 -0.0000
vn -0.9758 -0.0000 0.2184
vn -0.0625 -0.0658 0.9959
vn -0.2170 -0.0040 0.9762
vn -0.1817 -0.0000 0.9834
vn 0.0001 -0.3065 0.9519
vn -0.0000 -0.9962 0.0876
vn -0.0000 -0.3081 0.9514
vn -0.0000 -1.0000 -0.0000
vn -0.0000 -0.1718 0.9851
vn -0.0000 -0.0550 0.9985
vn -0.0001 0.8472 0.5313
vn -0.0001 -0.2361 0.9717
vn -0.0000 -0.2347 0.9721
vn -0.0000 -0.4029 0.9152
vn -0.0000 -0.6886 0.7251
vn -0.0000 -0.4723 0.8814
vn -0.0000 -0.4724 0.8814
vn -0.0000 -0.0896 0.9960
vn -0.0000 -0.9683 0.2498
vn -0.0000 -0.0549 0.9985
vn 0.6377 0.7703 -0.0000
vn 0.0093 0.5668 -0.8238
vn 0.0163 0.9999 -0.0000
vn 1.0000 -0.0000 -0.0000
vn 0.5895 -0.0003 -0.8078
vn 1.0000 -0.0006 -0.0000
vn -0.0000 0.5745 -0.8185
vn -0.0000 1.0000 -0.0000
vn -0.0273 -0.0286 0.9992
vn -0.0000 -0.0548 0.9985
vn -0.6534 -0.6849 0.3224
vn -0.6868 -0.7200 0.0997
vn -0.0000 -0.0897 0.9960
vn -0.0000 -0.4726 0.8813
vn -0.0030 -0.2309 0.9730
vn -0.0130 -0.9999 -0.0000
vn -0.3920 -0.4109 0.8231
vn -0.2063 -0.2163 0.9543
vn -0.0000 -0.1723 0.9850
vn 0.0001 -0.3071 0.9517
vn 0.0138 0.8425 0.5385
vn -0.0891 -0.0934 0.9916
vn -0.6888 -0.7249 -0.0000
vn -0.0129 -0.9999 -0.0000
vn -0.2000 -0.2097 0.9571
vn 0.9998 0.0212 -0.0000
vn 0.2873 0.3470 -0.8927
vn -0.1825 -0.0000 0.9832
vn -1.0000 -0.0000 -0.0000
vn -0.9759 -0.0000 0.2184
vn -0.0619 -0.0000 0.9981
vn -0.2939 -0.0000 0.9558
vn -0.0428 -0.0448 0.9981
vn 0.8018 0.0170 0.5973
vn 0.4619 0.5579 0.6894
vn -0.0000 0.8472 0.5312
vn 0.8095 -0.0000 0.5872
vn 0.8092 -0.0005 0.5876
vn -0.2214 -0.0000 0.9752
vn 0.5787 0.0122 -0.8154
vn -0.0000 0.5747 -0.8184
vn -0.0000 -0.0000 -1.0000
vn 0.5898 -0.0000 -0.8075
vn 0.0817 -0.0000 0.9967
vn 0.9986 -0.0000 0.0530
vn 0.2936 -0.0000 0.9559
vn 0.4815 -0.0000 0.8764
vn 0.7084 -0.0000 0.7058
vn 0.4815 -0.0000 0.8765
vn 0.0623 -0.0000 0.9981
vn 0.2956 -0.0000 0.9553
vn 0.2230 -0.0000 0.9748
vn 0.4070 -0.0000 0.9134
vn 0.9758 -0.0000 0.2185
vn 0.4071 -0.0000 0.9134
vn 0.1816 -0.0000 0.9834
vn 0.0819 -0.0000 0.9966
vn 0.2485 -0.2605 0.9330
vn 0.0428 -0.0448 0.9981
vn 0.9998 -0.0187 -0.0000
vn 0.6888 -0.7249 -0.0000
vn 0.0625 -0.0658 0.9959
vn 0.2170 -0.0040 0.9762
vn 0.1817 -0.0000 0.9834
vn -0.0001 -0.3065 0.9519
vn -0.0000 -0.2361 0.9717
vn -0.0093 0.5668 -0.8238
vn -0.6377 0.7703 -0.0000
vn -0.0163 0.9999 -0.0000
vn -0.5895 -0.0004 -0.8078
vn -1.0000 -0.0006 -0.0000
vn 0.0273 -0.0286 0.9992
vn 0.3920 -0.4109 0.8231
vn 0.6535 -0.6848 0.3224
vn 0.2063 -0.2163 0.9543
vn 0.6868 -0.7200 0.0997
vn 0.0029 -0.2309 0.9730
vn -0.0000 -0.4725 0.8813
vn 0.0891 -0.0934 0.9916
vn -0.0000 -0.3071 0.9517
vn 0.2000 -0.2097 0.9571
vn -0.0138 0.8425 0.5385
vn -0.4619 0.5580 0.6894
vn 0.0130 -0.9999 -0.0000
vn -0.2873 0.3470 -0.8927
vn -0.9998 0.0212 -0.0000
vn 0.1825 -0.0000 0.9832
vn 0.9759 -0.0000 0.2184
vn 0.4819 -0.0000 0.8762
vn 0.0619 -0.0000 0.9981
vn 0.2939 -0.0000 0.9558
vn -0.8018 0.0170 0.5973
vn -0.8095 -0.0000 0.5872
vn -0.8092 -0.0005 0.5876
vn 0.2214 -0.0002 0.9752
vn -0.5787 0.0123 -0.8154
vn 0.0129 -0.9999 -0.0001
vn -0.5898 -0.0000 -0.8075
vn -0.4815 -0.0000 0.8764
vn -0.2485 0.2605 0.9330
vn -0.0428 0.0448 0.9981
vn -0.9998 0.0187 -0.0000
vn -0.6887 0.7250 -0.0000
vn -0.0625 0.0658 0.9959
vn -0.2170 0.0040 0.9762
vn 0.0001 0.3065 0.9519
vn -0.0000 0.9962 0.0876
vn -0.0000 0.1718 0.9851
vn -0.0000 0.0550 0.9985
vn -0.0000 0.0549 0.9985
vn -0.0000 -0.8472 0.5313
vn -0.0000 -0.8472 0.5312
vn -0.0000 0.2361 0.9717
vn -0.0000 0.3081 0.9514
vn -0.0000 0.4029 0.9152
vn -0.0000 0.6886 0.7251
vn -0.0000 0.4723 0.8814
vn -0.0000 0.0896 0.9960
vn -0.0000 0.9683 0.2498
vn 0.0093 -0.5668 -0.8238
vn 0.6377 -0.7703 -0.0000
vn 0.0163 -0.9999 -0.0000
vn 0.5895 0.0004 -0.8078
vn 1.0000 0.0006 -0.0000
vn -0.0000 -0.5745 -0.8185
vn -0.0273 0.0286 0.9992
vn -0.3920 0.4109 0.8231
vn -0.6535 0.6848 0.3224
vn -0.2063 0.2163 0.9543
vn -0.6868 0.7200 0.0997
vn -0.0129 0.9999 -0.0000
vn -0.0000 0.4726 0.8813
vn -0.0000 0.1723 0.9850
vn -0.0891 0.0934 0.9916
vn -0.0000 0.3071 0.9517
vn -0.2000 0.2097 0.9571
vn 0.0138 -0.8425 0.5385
vn 0.4619 -0.5580 0.6894
vn -0.0000 0.0548 0.9985
vn -0.6888 0.7249 -0.0000
vn 0.2873 -0.3470 -0.8927
vn 0.9998 -0.0212 -0.0000
vn -0.4819 -0.0000 0.8762
vn 0.8018 -0.0170 0.5973
vn 0.8092 0.0005 0.5876
vn 0.9998 -0.0211 -0.0000
vn 0.5787 -0.0123 -0.8154
vn -0.0000 -0.5747 -0.8184
vn -0.0030 0.2309 0.9730
vn 0.4814 -0.0000 0.8765
vn 0.9758 -0.0000 0.2184
vn 0.2485 0.2605 0.9330
vn 0.6888 0.7250 -0.0000
vn 0.9998 0.0187 -0.0000
vn 0.0625 0.0658 0.9959
vn 0.2170 0.0040 0.9762
vn -0.0001 0.3065 0.9519
vn 0.0001 0.2361 0.9717
vn -0.0000 0.2347 0.9721
vn -0.6377 -0.7703 -0.0000
vn -0.0093 -0.5668 -0.8238
vn -0.0163 -0.9999 -0.0000
vn -0.5895 0.0004 -0.8078
vn -1.0000 0.0006 -0.0000
vn 0.0273 0.0286 0.9992
vn 0.6534 0.6849 0.3224
vn 0.6868 0.7200 0.0997
vn -0.0000 0.4725 0.8813
vn 0.0130 0.9999 -0.0000
vn 0.3920 0.4109 0.8231
vn 0.2063 0.2163 0.9543
vn -0.0001 0.3071 0.9517
vn 0.0029 0.2309 0.9730
vn -0.0138 -0.8425 0.5385
vn 0.0891 0.0934 0.9916
vn 0.6888 0.7249 -0.0000
vn 0.2000 0.2097 0.9571
vn -0.9998 -0.0212 -0.0000
vn -0.2873 -0.3470 -0.8927
vn 0.0428 0.0448 0.9981
vn -0.8018 -0.0170 0.5973
vn -0.4619 -0.5579 0.6894
vn -0.8092 0.0005 0.5876
vn -0.5787 -0.0122 -0.8154
vt 0.073236 0.840393
vt 0.381763 0.853062
vt 0.063800 0.853097
vt 0.090448 0.942334
vt 0.359028 0.944118
vt 0.090313 0.944118
vt 0.085425 0.824071
vt 0.381763 0.832504
vt 0.080008 0.832363
vt 0.087191 0.821245
vt 0.381763 0.824213
vt 0.579362 0.657813
vt 0.585096 0.393578
vt 0.585069 0.662397
vt 0.089907 0.949452
vt 0.359028 0.950556
vt 0.089023 0.950556
vt 0.076842 0.965767
vt 0.359028 0.978463
vt 0.064462 0.978463
vt 0.025529 0.840454
vt 0.025391 0.832397
vt 0.033347 0.832398
vt 0.577768 0.705519
vt 0.574528 0.702993
vt 0.578045 0.703092
vt 0.359028 0.949453
vt 0.578842 0.705670
vt 0.579406 0.703215
vt 0.359028 0.965767
vt 0.773754 0.161089
vt 0.775541 0.532798
vt 0.773753 0.532798
vt 0.072680 0.026998
vt 0.439739 0.030576
vt 0.072679 0.030570
vt 0.797371 0.147659
vt 0.811709 0.532798
vt 0.797371 0.532798
vt 0.961997 0.087247
vt 0.964005 0.507329
vt 0.961990 0.507329
vt 0.072680 0.025693
vt 0.439739 0.020293
vt 0.439739 0.025682
vt 0.782004 0.159872
vt 0.782004 0.532798
vt 0.934511 0.109355
vt 0.943092 0.507329
vt 0.934513 0.507329
vt 0.439739 0.026993
vt 0.943091 0.104214
vt 0.951093 0.507329
vt 0.775543 0.161006
vt 0.780888 0.532798
vt 0.780890 0.160758
vt 0.931654 0.111107
vt 0.931654 0.507329
vt 0.993456 0.018645
vt 0.996454 0.027112
vt 0.993483 0.027117
vt 0.381763 0.884888
vt 0.062062 0.887916
vt 0.062063 0.884951
vt 0.996487 0.085191
vt 0.993521 0.085192
vt 0.931683 0.048227
vt 0.934541 0.054560
vt 0.931682 0.056554
vt 0.780890 0.101223
vt 0.782005 0.108540
vt 0.780890 0.109548
vt 0.775543 0.101506
vt 0.775543 0.109831
vt 0.943122 0.040373
vt 0.951149 0.040865
vt 0.943126 0.048709
vt 0.014926 0.027247
vt 0.017253 0.025658
vt 0.017357 0.027014
vt 0.934541 0.046233
vt 0.782005 0.100216
vt 0.797371 0.094647
vt 0.014794 0.026132
vt 0.016635 0.020280
vt 0.961363 0.021045
vt 0.964076 0.027225
vt 0.962109 0.029485
vt 0.797371 0.086322
vt 0.811709 0.082002
vt 0.015043 0.030632
vt 0.017439 0.030549
vt 0.773754 0.101600
vt 0.773754 0.109925
vt 0.012689 0.884902
vt 0.005686 0.887859
vt 0.005692 0.884878
vt 0.039354 0.950556
vt 0.033231 0.965767
vt 0.025289 0.965767
vt 0.578059 0.657814
vt 0.040842 0.944119
vt 0.048315 0.949453
vt 0.040374 0.949453
vt 0.574493 0.657815
vt 0.018938 0.978463
vt 0.010996 0.978463
vt 0.047295 0.950556
vt 0.585101 0.703707
vt 0.585375 0.711305
vt 0.033692 0.821271
vt 0.039601 0.824097
vt 0.031653 0.824098
vt 0.040998 0.942334
vt 0.048784 0.944119
vt 0.017526 0.840473
vt 0.014728 0.853243
vt 0.007781 0.852330
vt 0.012836 0.855528
vt 0.005785 0.858422
vt 0.005930 0.855053
vt 0.967208 0.085199
vt 0.964012 0.085196
vt 0.381763 0.855368
vt 0.062070 0.858639
vt 0.062065 0.855444
vt 0.963715 0.018821
vt 0.967189 0.027176
vt 0.951164 0.032478
vt 0.951094 0.097320
vt 0.012760 0.858615
vt 0.381763 0.840533
vt 0.574433 0.393578
vt 0.578031 0.393578
vt 0.579358 0.393578
vt 0.012683 0.887875
vt 0.041639 0.821268
vt 0.048940 0.942334
vt 0.967198 0.507330
vt 0.996489 0.507330
vt 0.993521 0.507330
vt 0.067670 0.020312
vt 0.811709 0.136544
vt 0.013670 0.386423
vt 0.056447 0.128975
vt 0.056447 0.386423
vt 0.054639 0.039409
vt 0.062120 0.080608
vt 0.019343 0.039387
vt 0.013670 0.087753
vt 0.056447 0.087462
vt 0.279985 0.039554
vt 0.069965 0.080613
vt 0.056447 0.080608
vt 0.014445 0.040258
vt 0.013670 0.046240
vt 0.010636 0.043317
vt 0.016310 0.036464
vt 0.011411 0.037335
vt 0.279985 0.036630
vt 0.051605 0.036486
vt 0.010635 0.084829
vt 0.010636 0.386423
vt 0.381763 0.858564
vt 0.967036 0.018729
vt 0.071679 0.087462
vt 0.279985 0.128974
vt 0.071679 0.128975
vt 0.063991 0.087462
vt 0.063991 0.128975
vt 0.279985 0.080776
vt 0.279985 0.087462
vt 0.063992 0.386423
vt 0.071679 0.386423
vt 0.381759 0.774745
vt 0.690284 0.762077
vt 0.699720 0.774780
vt 0.362130 0.895014
vt 0.630708 0.893230
vt 0.630843 0.895015
vt 0.381759 0.754187
vt 0.678095 0.745754
vt 0.683512 0.754047
vt 0.381759 0.745897
vt 0.676330 0.742929
vt 0.606378 0.393599
vt 0.600643 0.129379
vt 0.606351 0.124795
vt 0.362130 0.901452
vt 0.631249 0.900349
vt 0.632132 0.901452
vt 0.362130 0.929360
vt 0.644314 0.916663
vt 0.656693 0.929359
vt 0.737990 0.762136
vt 0.738128 0.754079
vt 0.745993 0.762155
vt 0.595810 0.084201
vt 0.599050 0.081676
vt 0.599327 0.084103
vt 0.362130 0.900347
vt 0.600123 0.081525
vt 0.600688 0.083979
vt 0.362130 0.916663
vt 0.773750 0.904498
vt 0.775539 0.904581
vt 0.806904 0.027001
vt 0.806904 0.030572
vt 0.797371 0.917930
vt 0.811709 0.929045
vt 0.961989 0.927430
vt 0.964009 0.929486
vt 0.806903 0.025692
vt 0.811914 0.020311
vt 0.782004 0.905717
vt 0.934501 0.905320
vt 0.943082 0.910462
vt 0.951086 0.917357
vt 0.780887 0.904829
vt 0.931645 0.903569
vt 0.996454 0.987575
vt 0.993456 0.996042
vt 0.993482 0.987569
vt 0.701457 0.809599
vt 0.381759 0.806571
vt 0.701456 0.806633
vt 0.996489 0.929490
vt 0.993521 0.929490
vt 0.931674 0.966457
vt 0.934532 0.960123
vt 0.934532 0.968452
vt 0.780889 0.964367
vt 0.782003 0.957050
vt 0.782003 0.965375
vt 0.775542 0.964085
vt 0.780889 0.956042
vt 0.943115 0.974312
vt 0.951143 0.973820
vt 0.951158 0.982208
vt 0.864661 0.027247
vt 0.862334 0.025658
vt 0.864794 0.026132
vt 0.943118 0.965974
vt 0.797371 0.970944
vt 0.797371 0.979269
vt 0.862952 0.020279
vt 0.870973 0.020026
vt 0.961359 0.993642
vt 0.964073 0.987461
vt 0.963712 0.995866
vt 0.811709 0.983590
vt 0.811709 0.991915
vt 0.864544 0.030632
vt 0.862231 0.027014
vt 0.773753 0.963990
vt 0.775541 0.955759
vt 0.757833 0.809541
vt 0.750830 0.806584
vt 0.757827 0.806560
vt 0.687923 0.916663
vt 0.681801 0.901452
vt 0.695865 0.916663
vt 0.599342 0.129378
vt 0.672839 0.900349
vt 0.680313 0.895016
vt 0.680781 0.900349
vt 0.595776 0.129377
vt 0.730172 0.754081
vt 0.702215 0.929359
vt 0.710157 0.929359
vt 0.673859 0.901452
vt 0.606382 0.083488
vt 0.606657 0.075890
vt 0.723918 0.745779
vt 0.729827 0.742954
vt 0.731866 0.745781
vt 0.672371 0.895015
vt 0.680156 0.893231
vt 0.748791 0.774925
vt 0.755738 0.774011
vt 0.757734 0.780104
vt 0.750683 0.777210
vt 0.757589 0.776735
vt 0.967206 0.929483
vt 0.701449 0.780321
vt 0.381759 0.777052
vt 0.701454 0.777125
vt 0.967187 0.987511
vt 0.962105 0.985201
vt 0.750759 0.780296
vt 0.381759 0.762216
vt 0.595713 0.393599
vt 0.599311 0.393599
vt 0.600640 0.393599
vt 0.750837 0.809557
vt 0.721880 0.742951
vt 0.672214 0.893231
vt 0.931673 0.958130
vt 0.862148 0.030549
vt 0.773752 0.955665
vt 0.056447 0.643872
vt 0.013670 0.685093
vt 0.062121 0.692238
vt 0.054639 0.733437
vt 0.019344 0.733460
vt 0.056447 0.685385
vt 0.013670 0.726607
vt 0.069966 0.692233
vt 0.279986 0.733292
vt 0.056447 0.692238
vt 0.014445 0.732588
vt 0.010637 0.729530
vt 0.011412 0.735512
vt 0.016310 0.736383
vt 0.279986 0.736216
vt 0.051606 0.736361
vt 0.010636 0.688017
vt 0.381759 0.780246
vt 0.967033 0.995959
vt 0.279986 0.643872
vt 0.071680 0.685385
vt 0.071680 0.643872
vt 0.063992 0.685385
vt 0.063992 0.643872
vt 0.279986 0.692070
vt 0.279986 0.685385
vt 0.690281 0.840392
vt 0.699717 0.853095
vt 0.627605 0.942333
vt 0.627741 0.944117
vt 0.678092 0.824070
vt 0.683509 0.832362
vt 0.676327 0.821245
vt 0.579363 0.129377
vt 0.585069 0.124793
vt 0.628146 0.949451
vt 0.629031 0.950556
vt 0.641213 0.965767
vt 0.653592 0.978463
vt 0.737987 0.840451
vt 0.738125 0.832395
vt 0.745990 0.840470
vt 0.574529 0.084201
vt 0.577769 0.081675
vt 0.578045 0.084102
vt 0.578842 0.081525
vt 0.579406 0.083979
vt 0.819050 0.904517
vt 0.820836 0.532800
vt 0.820839 0.904600
vt 0.436224 0.013209
vt 0.803012 0.009597
vt 0.803013 0.013166
vt 0.842666 0.917947
vt 0.857005 0.532800
vt 0.857004 0.929063
vt 0.893188 0.927412
vt 0.895206 0.507335
vt 0.895211 0.929471
vt 0.803011 0.008292
vt 0.436224 0.002896
vt 0.808018 0.002915
vt 0.827299 0.905734
vt 0.842667 0.532800
vt 0.865700 0.905303
vt 0.874294 0.507335
vt 0.874281 0.910444
vt 0.436224 0.009619
vt 0.882295 0.507335
vt 0.882285 0.917338
vt 0.826183 0.532800
vt 0.826185 0.904849
vt 0.827299 0.532800
vt 0.862840 0.903548
vt 0.865714 0.507335
vt 0.927653 0.987560
vt 0.924655 0.996027
vt 0.924682 0.987554
vt 0.701456 0.887916
vt 0.701455 0.884949
vt 0.927689 0.929476
vt 0.924722 0.929475
vt 0.862873 0.966441
vt 0.865730 0.960107
vt 0.865731 0.968435
vt 0.826185 0.964384
vt 0.827299 0.957067
vt 0.827299 0.965392
vt 0.820838 0.964101
vt 0.826185 0.956059
vt 0.874314 0.974296
vt 0.882343 0.973804
vt 0.882358 0.982192
vt 0.858282 0.009608
vt 0.860841 0.008726
vt 0.860709 0.009840
vt 0.874317 0.965958
vt 0.842666 0.970961
vt 0.842666 0.979286
vt 0.859002 0.002881
vt 0.867012 0.002626
vt 0.892559 0.993626
vt 0.895273 0.987446
vt 0.894912 0.995850
vt 0.857004 0.983606
vt 0.857004 0.991931
vt 0.858199 0.013139
vt 0.860593 0.013222
vt 0.819048 0.964007
vt 0.820838 0.955776
vt 0.757833 0.887855
vt 0.750830 0.884898
vt 0.757827 0.884874
vt 0.684822 0.965767
vt 0.678700 0.950556
vt 0.692764 0.965767
vt 0.578059 0.129376
vt 0.669738 0.949453
vt 0.677212 0.944119
vt 0.677680 0.949453
vt 0.574493 0.129375
vt 0.730169 0.832396
vt 0.699115 0.978463
vt 0.707056 0.978463
vt 0.670758 0.950556
vt 0.585101 0.083487
vt 0.585375 0.075890
vt 0.723915 0.824095
vt 0.729823 0.821269
vt 0.731862 0.824096
vt 0.669270 0.944119
vt 0.677055 0.942335
vt 0.748788 0.853240
vt 0.755734 0.852326
vt 0.757731 0.858417
vt 0.750680 0.855524
vt 0.757585 0.855049
vt 0.898408 0.929468
vt 0.701448 0.858638
vt 0.701453 0.855442
vt 0.898387 0.987495
vt 0.893305 0.985185
vt 0.893191 0.507335
vt 0.750756 0.858611
vt 0.750836 0.887871
vt 0.721877 0.821267
vt 0.669114 0.942334
vt 0.898399 0.507335
vt 0.927689 0.507335
vt 0.924721 0.507335
vt 0.862872 0.958113
vt 0.858385 0.008253
vt 0.819048 0.955682
vt 0.546301 0.386423
vt 0.503524 0.128974
vt 0.546301 0.087753
vt 0.497850 0.080608
vt 0.505332 0.039409
vt 0.540627 0.039387
vt 0.503524 0.087462
vt 0.546300 0.046240
vt 0.490005 0.080613
vt 0.503524 0.080608
vt 0.545526 0.040258
vt 0.549334 0.043317
vt 0.548559 0.037335
vt 0.543661 0.036463
vt 0.508366 0.036486
vt 0.549336 0.084828
vt 0.549335 0.386423
vt 0.898233 0.995942
vt 0.488292 0.087461
vt 0.488292 0.128974
vt 0.495979 0.087461
vt 0.495979 0.128974
vt 0.495980 0.386423
vt 0.488292 0.386423
vt 0.503524 0.386423
vt 0.073236 0.762073
vt 0.063799 0.774776
vt 0.093548 0.893230
vt 0.093412 0.895015
vt 0.085425 0.745751
vt 0.080008 0.754043
vt 0.087191 0.742925
vt 0.600644 0.657805
vt 0.606351 0.662389
vt 0.093007 0.900349
vt 0.092123 0.901452
vt 0.079941 0.916663
vt 0.067562 0.929360
vt 0.025529 0.762132
vt 0.025391 0.754075
vt 0.033347 0.754076
vt 0.599050 0.705506
vt 0.595810 0.702981
vt 0.599327 0.703079
vt 0.600124 0.705657
vt 0.600688 0.703203
vt 0.819050 0.161090
vt 0.819048 0.532800
vt 0.069337 0.009597
vt 0.069336 0.013167
vt 0.842667 0.147660
vt 0.893194 0.087248
vt 0.069338 0.008293
vt 0.436224 0.008294
vt 0.827300 0.159873
vt 0.865709 0.109356
vt 0.874288 0.104215
vt 0.820839 0.161007
vt 0.826186 0.160758
vt 0.862851 0.111108
vt 0.862856 0.507335
vt 0.924654 0.018645
vt 0.927652 0.027112
vt 0.924680 0.027117
vt 0.062061 0.809599
vt 0.062062 0.806632
vt 0.927685 0.085192
vt 0.924719 0.085193
vt 0.862880 0.048228
vt 0.865738 0.054561
vt 0.862880 0.056555
vt 0.826186 0.101224
vt 0.827300 0.108541
vt 0.826186 0.109548
vt 0.820839 0.101506
vt 0.820839 0.109831
vt 0.874319 0.040374
vt 0.882347 0.040865
vt 0.874323 0.048710
vt 0.011511 0.008726
vt 0.014071 0.009608
vt 0.011643 0.009840
vt 0.865738 0.046233
vt 0.827300 0.100216
vt 0.842667 0.094647
vt 0.013350 0.002881
vt 0.013968 0.008253
vt 0.892560 0.021045
vt 0.895273 0.027225
vt 0.893306 0.029485
vt 0.842667 0.086322
vt 0.857005 0.082002
vt 0.014153 0.013139
vt 0.011759 0.013222
vt 0.819050 0.101601
vt 0.819050 0.109926
vt 0.012685 0.806581
vt 0.005680 0.809538
vt 0.005688 0.806556
vt 0.042453 0.901452
vt 0.036331 0.916663
vt 0.028389 0.916663
vt 0.599342 0.657806
vt 0.043941 0.895015
vt 0.051415 0.900349
vt 0.043473 0.900349
vt 0.595775 0.657808
vt 0.022038 0.929360
vt 0.014096 0.929360
vt 0.050395 0.901452
vt 0.606382 0.703694
vt 0.606656 0.711292
vt 0.033692 0.742949
vt 0.039601 0.745775
vt 0.031653 0.745777
vt 0.044098 0.893230
vt 0.051883 0.895015
vt 0.017525 0.762151
vt 0.014727 0.774921
vt 0.007780 0.774007
vt 0.012835 0.777206
vt 0.005784 0.780099
vt 0.005929 0.776730
vt 0.898406 0.085200
vt 0.895209 0.085197
vt 0.062069 0.780320
vt 0.062064 0.777123
vt 0.894912 0.018822
vt 0.898387 0.027176
vt 0.882361 0.032478
vt 0.882292 0.097321
vt 0.012759 0.780293
vt 0.012679 0.809554
vt 0.041639 0.742947
vt 0.052040 0.893230
vt 0.064332 0.002915
vt 0.857005 0.136545
vt 0.503524 0.643871
vt 0.505333 0.733437
vt 0.497851 0.692238
vt 0.540628 0.733460
vt 0.546301 0.685093
vt 0.503524 0.685385
vt 0.490006 0.692233
vt 0.503524 0.692238
vt 0.545527 0.732588
vt 0.546301 0.726606
vt 0.549335 0.729529
vt 0.543661 0.736383
vt 0.548560 0.735511
vt 0.508366 0.736360
vt 0.549336 0.688017
vt 0.898233 0.018729
vt 0.488292 0.685385
vt 0.488292 0.643872
vt 0.495980 0.685385
vt 0.495980 0.643872
vt 0.359028 0.942333
vt 0.381763 0.821389
vt 0.574431 0.705383
vt 0.996434 0.018638
vt 0.381763 0.887856
vt 0.008615 0.020026
vt 0.811709 0.073677
vt 0.279986 0.386423
vt 0.362130 0.893229
vt 0.381759 0.743072
vt 0.595713 0.081812
vt 0.996434 0.996049
vt 0.381759 0.809536
vt 0.574432 0.081811
vt 0.927634 0.996034
vt 0.595713 0.705370
vt 0.927632 0.018638
vt 0.005340 0.002627
vt 0.857005 0.073677
s 1
usemtl fancy_picture_frame_01
f 49/1/1 280/2/2 64/3/2
f 50/4/3 241/5/4 55/6/4
f 51/7/5 233/8/6 60/9/7
f 52/10/8 234/11/5 51/7/5
f 53/12/9 236/13/10 50/14/3
f 59/15/11 245/16/12 57/17/13
f 61/18/14 232/19/8 52/20/8
f 30/21/15 5/22/16 34/23/17
f 12/24/18 38/25/19 40/26/19
f 55/6/4 235/27/20 59/15/11
f 9/28/21 40/26/19 36/29/22
f 57/17/13 231/30/23 61/18/14
f 72/31/24 123/32/25 120/33/26
f 66/34/27 122/35/27 73/36/27
f 74/37/28 116/38/29 115/39/28
f 80/40/2 114/41/30 161/42/2
f 76/43/31 120/44/26 121/45/32
f 77/46/33 115/39/28 125/47/33
f 78/48/34 117/49/35 118/50/34
f 76/43/31 124/51/27 66/34/27
f 69/52/36 113/53/37 117/49/35
f 65/54/25 119/55/38 123/32/25
f 70/56/38 125/47/33 119/55/38
f 67/57/39 118/50/34 116/58/29
f 91/59/40 28/60/41 92/61/42
f 329/62/43 62/63/44 94/64/45
f 92/61/42 71/65/46 95/66/47
f 4/67/48 26/68/34 19/69/49
f 7/70/50 24/71/33 27/72/38
f 11/73/51 27/72/38 15/74/25
f 5/75/16 22/76/52 25/77/53
f 12/78/18 23/79/54 17/80/55
f 6/81/56 25/77/53 26/68/34
f 13/82/57 20/83/58 24/71/33
f 9/84/21 16/85/59 23/79/54
f 46/86/2 21/87/60 47/88/2
f 3/89/61 19/90/49 20/83/58
f 10/91/62 17/80/55 18/92/63
f 8/93/64 15/74/25 16/94/59
f 93/95/65 14/96/66 91/97/40
f 13/98/57 37/99/67 3/100/61
f 36/29/22 56/101/68 53/12/9
f 11/102/51 32/103/69 7/104/50
f 40/26/19 54/105/68 56/101/68
f 49/1/1 34/23/17 60/9/7
f 3/100/61 35/106/70 4/107/48
f 7/104/50 41/108/12 13/98/57
f 9/28/21 31/109/71 8/110/64
f 4/111/48 33/112/5 6/113/56
f 6/113/56 34/23/17 5/22/16
f 8/114/64 39/115/4 11/102/51
f 1/116/72 48/117/2 46/118/2
f 29/119/73 43/120/40 2/121/74
f 21/87/60 79/122/47 68/123/75
f 220/124/76 63/125/45 58/126/77
f 2/127/74 44/128/42 21/87/60
f 46/118/2 29/119/73 2/121/74
f 1/129/72 47/88/2 22/76/52
f 75/130/37 161/42/2 113/53/37
f 64/3/2 220/124/76 58/126/77
f 48/117/2 58/126/77 29/119/73
f 58/126/77 45/131/65 29/119/73
f 221/132/1 60/9/7 233/8/6
f 56/101/68 239/133/68 243/134/68
f 53/12/9 243/134/68 237/135/78
f 94/64/45 42/136/79 93/95/65
f 41/108/12 61/18/14 37/99/67
f 39/115/4 59/15/11 32/103/69
f 37/99/67 52/20/8 35/106/70
f 32/103/69 57/17/13 41/108/12
f 36/29/22 50/14/3 31/109/71
f 35/137/70 51/7/5 33/112/5
f 33/112/5 60/9/7 34/23/17
f 31/138/71 55/6/4 39/115/4
f 30/21/15 64/3/2 48/117/2
f 22/76/52 80/40/2 75/130/37
f 68/123/75 157/139/47 114/41/30
f 95/66/47 127/140/80 211/141/47
f 19/69/49 78/48/34 67/57/39
f 27/72/38 77/46/33 70/56/38
f 15/74/25 70/56/38 65/54/25
f 25/77/53 75/130/37 69/52/36
f 23/79/54 66/34/27 17/80/55
f 26/68/34 69/52/36 78/48/34
f 24/71/33 74/37/28 77/46/33
f 23/79/54 72/142/24 76/43/31
f 47/88/2 68/123/75 80/40/2
f 20/83/58 67/143/39 74/37/28
f 17/80/55 73/36/27 18/92/63
f 16/94/59 65/54/25 72/31/24
f 203/144/81 85/145/81 197/146/81
f 87/147/81 83/148/81 88/149/81
f 86/150/81 82/151/81 85/145/81
f 326/152/81 84/153/81 87/147/81
f 88/149/81 81/154/81 90/155/81
f 89/156/81 81/154/81 82/151/81
f 28/157/41 90/155/81 89/156/81
f 42/158/79 90/155/81 14/159/66
f 246/160/82 87/147/81 62/161/44
f 71/162/46 89/156/81 86/150/81
f 62/161/44 88/149/81 42/158/79
f 127/163/80 86/150/81 203/144/81
f 79/122/47 211/141/47 157/139/47
f 45/131/65 94/64/45 93/95/65
f 43/120/40 93/95/65 91/97/40
f 44/128/42 95/66/47 79/122/47
f 277/164/43 94/64/45 63/125/45
f 43/165/40 92/61/42 44/128/42
f 96/166/81 335/167/81 97/168/81
f 99/169/81 97/168/81 98/170/81
f 82/151/81 98/170/81 85/145/81
f 82/151/81 83/148/81 99/169/81
f 99/169/81 84/153/81 96/166/81
f 96/166/81 316/171/81 334/172/81
f 97/168/81 219/173/81 98/170/81
f 335/167/81 218/174/81 97/168/81
f 98/170/81 197/146/81 85/145/81
f 415/175/2 164/176/83 179/177/2
f 361/178/84 165/179/85 170/180/84
f 353/181/86 166/182/87 175/183/88
f 354/184/87 167/185/89 166/182/87
f 356/186/90 168/187/91 165/188/85
f 365/189/92 174/190/93 172/191/94
f 352/192/89 176/193/95 167/194/89
f 143/195/96 104/196/97 100/197/98
f 151/198/99 111/199/100 153/200/99
f 355/201/93 170/180/84 174/190/93
f 153/200/99 108/202/101 149/203/102
f 351/204/103 172/191/94 176/193/95
f 187/205/104 123/32/25 180/206/25
f 122/35/27 181/207/27 188/208/27
f 189/209/28 116/38/29 182/210/39
f 195/211/2 114/41/30 183/212/75
f 191/213/105 120/44/26 187/214/104
f 192/215/33 115/39/28 189/209/28
f 193/216/34 117/49/35 184/217/35
f 124/51/27 191/213/105 181/207/27
f 184/217/35 113/53/37 190/218/37
f 180/206/25 119/55/38 185/219/38
f 185/219/38 125/47/33 192/215/33
f 182/220/39 118/50/34 193/216/34
f 141/221/106 208/222/107 209/223/108
f 177/224/109 467/225/68 212/226/110
f 186/227/46 209/223/108 213/228/47
f 103/229/111 139/230/34 105/231/112
f 106/232/113 137/233/33 112/234/114
f 110/235/115 140/236/38 106/232/113
f 104/237/97 135/238/37 100/239/98
f 111/240/100 136/241/116 108/242/101
f 105/231/112 138/243/117 104/237/97
f 112/234/114 133/244/58 102/245/118
f 108/242/101 129/246/119 107/247/120
f 160/248/2 134/249/121 101/250/122
f 102/245/118 132/251/49 103/252/111
f 109/253/100 130/254/123 111/240/100
f 107/255/120 128/256/25 110/235/115
f 126/257/124 210/258/125 208/259/107
f 150/260/126 112/261/114 102/262/118
f 171/263/43 149/203/102 168/187/91
f 145/264/127 110/265/115 106/266/113
f 169/267/43 153/200/99 171/263/43
f 164/176/83 147/268/128 143/195/96
f 148/269/129 102/262/118 103/270/111
f 154/271/92 106/266/113 112/261/114
f 144/272/130 108/202/101 107/273/120
f 146/274/87 103/275/111 105/276/112
f 147/268/128 105/276/112 104/196/97
f 152/277/84 107/278/120 110/265/115
f 163/279/2 100/197/98 160/280/2
f 156/281/107 142/282/131 101/283/122
f 194/284/47 134/249/121 183/212/75
f 178/285/110 340/286/132 173/287/133
f 158/288/108 101/250/122 134/249/121
f 142/282/131 160/280/2 101/283/122
f 100/239/98 162/289/2 160/248/2
f 190/218/37 161/42/2 195/211/2
f 340/286/132 179/177/2 173/287/133
f 173/287/133 163/279/2 142/282/131
f 159/290/125 173/287/133 142/282/131
f 341/291/83 175/183/88 164/176/83
f 359/292/43 171/263/43 363/293/43
f 363/293/43 168/187/91 357/294/134
f 155/295/135 212/226/110 210/258/125
f 176/193/95 154/271/92 150/260/126
f 174/190/93 152/277/84 145/264/127
f 167/194/89 150/260/126 148/269/129
f 172/191/94 145/264/127 154/271/92
f 165/188/85 149/203/102 144/272/130
f 166/182/87 148/296/129 146/274/87
f 175/183/88 146/274/87 147/268/128
f 170/180/84 144/297/130 152/277/84
f 179/177/2 143/195/96 163/279/2
f 135/238/37 195/211/2 162/289/2
f 157/139/47 183/212/75 114/41/30
f 127/140/80 213/228/47 211/141/47
f 132/298/49 193/216/34 139/230/34
f 140/236/38 192/215/33 137/233/33
f 128/256/25 185/219/38 140/236/38
f 138/243/117 190/218/37 135/238/37
f 181/207/27 136/241/116 130/254/123
f 139/230/34 184/217/35 138/243/117
f 137/233/33 189/209/28 133/244/58
f 136/241/116 187/214/104 129/246/119
f 162/289/2 183/212/75 134/249/121
f 133/244/58 182/210/39 132/251/49
f 188/208/27 130/254/123 131/299/136
f 129/300/119 180/206/25 128/256/25
f 203/144/81 201/301/81 202/302/81
f 199/303/81 204/304/81 205/305/81
f 202/302/81 198/306/81 206/307/81
f 200/308/81 464/309/81 204/304/81
f 196/310/81 205/305/81 207/311/81
f 206/307/81 196/310/81 207/311/81
f 141/312/106 207/311/81 126/313/124
f 207/311/81 155/314/135 126/313/124
f 204/304/81 379/315/137 177/316/109
f 186/317/46 206/307/81 141/312/106
f 205/305/81 177/316/109 155/314/135
f 127/163/80 202/302/81 186/317/46
f 211/141/47 194/284/47 157/139/47
f 159/290/125 212/226/110 178/285/110
f 156/281/107 210/258/125 159/290/125
f 213/228/47 158/288/108 194/284/47
f 212/226/110 412/318/68 178/285/110
f 209/223/108 156/319/107 158/288/108
f 474/320/81 214/321/81 215/322/81
f 215/322/81 217/323/81 216/324/81
f 216/324/81 198/306/81 201/301/81
f 199/303/81 198/306/81 217/323/81
f 200/308/81 217/323/81 214/321/81
f 452/325/81 214/321/81 473/326/81
f 219/173/81 215/322/81 216/324/81
f 218/174/81 474/320/81 215/322/81
f 197/146/81 216/324/81 201/301/81
f 280/2/2 284/327/1 299/328/2
f 241/5/4 285/329/3 290/330/4
f 233/8/6 286/331/5 295/332/138
f 234/11/5 287/333/8 286/331/5
f 236/13/10 288/334/9 285/335/3
f 245/16/12 294/336/11 292/337/13
f 232/19/8 296/338/14 287/339/8
f 263/340/15 226/341/139 222/342/140
f 271/343/141 242/344/142 273/345/141
f 235/27/20 290/330/4 294/336/11
f 273/345/141 230/346/143 269/347/144
f 231/30/23 292/337/13 296/338/14
f 307/348/145 376/349/146 300/350/146
f 375/351/47 301/352/47 308/353/47
f 309/354/147 369/355/148 302/356/149
f 315/357/2 367/358/150 303/359/151
f 311/360/152 373/361/153 307/362/145
f 312/363/154 368/364/147 309/354/147
f 313/365/155 370/366/156 304/367/156
f 377/368/47 311/360/152 301/352/47
f 304/367/156 366/369/157 310/370/157
f 300/350/146 372/371/158 305/372/158
f 305/372/158 378/373/154 312/363/154
f 302/374/149 371/375/155 313/365/155
f 261/376/159 328/377/160 330/378/161
f 297/379/162 329/62/43 332/380/163
f 306/381/164 330/378/161 333/382/27
f 225/383/165 259/384/155 227/385/166
f 228/386/167 257/387/154 244/388/168
f 240/389/169 260/390/158 228/386/167
f 226/391/139 255/392/157 222/393/140
f 250/394/170 230/395/143 242/396/142
f 227/385/166 258/397/171 226/391/139
f 244/388/168 253/398/172 224/399/173
f 230/395/143 249/400/174 229/401/175
f 281/402/2 254/403/176 223/404/177
f 224/399/173 252/405/178 225/406/165
f 251/407/170 242/396/142 238/408/179
f 229/409/175 248/410/146 240/389/169
f 247/411/180 331/412/181 328/413/160
f 270/414/67 244/415/168 224/416/173
f 291/417/68 269/347/144 288/334/9
f 265/418/69 240/419/169 228/420/167
f 289/421/68 273/345/141 291/417/68
f 284/327/1 267/422/182 263/340/15
f 268/423/70 224/416/173 225/424/165
f 274/425/12 228/420/167 244/415/168
f 264/426/71 230/346/143 229/427/175
f 266/428/5 225/429/165 227/430/166
f 267/422/182 227/430/166 226/341/139
f 272/431/4 229/432/175 240/419/169
f 283/433/2 222/342/140 281/434/2
f 276/435/160 262/436/183 223/437/177
f 314/438/27 254/403/176 303/359/151
f 298/439/163 220/124/76 293/440/184
f 278/441/161 223/404/177 254/403/176
f 262/436/183 281/434/2 223/437/177
f 222/393/140 282/442/2 281/402/2
f 310/370/157 417/443/2 315/357/2
f 220/124/76 299/328/2 293/440/184
f 293/440/184 283/433/2 262/436/183
f 279/444/185 293/440/184 262/436/183
f 221/132/1 295/332/138 284/327/1
f 243/134/68 289/421/68 291/417/68
f 243/134/68 288/334/9 237/135/78
f 275/445/186 332/380/163 331/412/181
f 296/338/14 274/425/12 270/414/67
f 294/336/11 272/431/4 265/418/69
f 287/339/8 270/414/67 268/423/70
f 292/337/13 265/418/69 274/425/12
f 285/335/3 269/347/144 264/426/71
f 286/331/5 268/446/70 266/428/5
f 295/332/138 266/428/5 267/422/182
f 290/330/4 264/447/71 272/431/4
f 299/328/2 263/340/15 283/433/2
f 255/392/157 315/357/2 282/442/2
f 411/448/27 303/359/151 367/358/150
f 381/449/187 333/382/27 470/450/27
f 252/451/178 313/365/155 259/384/155
f 260/390/158 312/363/154 257/387/154
f 248/410/146 305/372/158 260/390/158
f 258/397/171 310/370/157 255/392/157
f 301/352/47 256/452/188 250/394/170
f 259/384/155 304/367/156 258/397/171
f 257/387/154 309/354/147 253/398/172
f 256/452/188 307/362/145 249/400/174
f 282/442/2 303/359/151 254/403/176
f 253/398/172 302/356/149 252/405/178
f 308/353/47 250/394/170 251/407/170
f 249/453/174 300/350/146 248/410/146
f 460/454/81 321/455/81 322/456/81
f 319/457/81 323/458/81 324/459/81
f 322/456/81 318/460/81 325/461/81
f 320/462/81 326/152/81 323/458/81
f 317/463/81 324/459/81 327/464/81
f 325/461/81 317/463/81 327/464/81
f 261/465/159 327/464/81 247/466/180
f 327/464/81 275/467/186 247/466/180
f 323/458/81 246/160/82 297/468/162
f 306/469/164 325/461/81 261/465/159
f 324/459/81 297/468/162 275/467/186
f 381/470/187 322/456/81 306/469/164
f 470/450/27 314/438/27 411/448/27
f 331/412/181 298/439/163 279/444/185
f 328/413/160 279/444/185 276/435/160
f 333/382/27 278/441/161 314/438/27
f 332/380/163 277/164/43 298/439/163
f 330/378/161 276/471/160 278/441/161
f 335/167/81 336/472/81 337/473/81
f 337/473/81 339/474/81 338/475/81
f 338/475/81 318/460/81 321/455/81
f 319/457/81 318/460/81 339/474/81
f 320/462/81 339/474/81 336/472/81
f 316/171/81 336/472/81 334/172/81
f 481/476/81 337/473/81 338/475/81
f 480/477/81 335/167/81 337/473/81
f 454/478/81 338/475/81 321/455/81
f 420/479/83 415/175/2 435/480/2
f 421/481/85 361/178/84 426/482/84
f 422/483/87 353/181/86 431/484/189
f 423/485/89 354/184/87 422/483/87
f 424/486/91 356/186/90 421/487/85
f 430/488/190 365/189/92 428/489/94
f 432/490/95 352/192/89 423/491/89
f 397/492/96 346/493/191 401/494/128
f 362/495/192 405/496/193 407/497/193
f 426/482/84 355/201/93 430/488/190
f 350/498/194 407/497/193 403/499/195
f 428/489/94 351/204/103 432/490/95
f 443/500/196 376/349/146 373/501/153
f 437/502/47 375/351/47 444/503/47
f 445/504/147 369/355/148 368/364/147
f 451/505/2 367/358/150 417/443/2
f 447/506/197 373/361/153 374/507/198
f 448/508/154 368/364/147 378/373/154
f 449/509/155 370/366/156 371/375/155
f 447/506/197 377/368/47 437/502/47
f 440/510/156 366/369/157 370/366/156
f 436/511/146 372/371/158 376/349/146
f 441/512/158 378/373/154 372/371/158
f 438/513/149 371/375/155 369/514/148
f 466/515/199 395/516/200 468/517/201
f 467/225/68 433/518/202 471/519/203
f 468/517/201 442/520/164 472/521/27
f 345/522/204 393/523/155 386/524/178
f 348/525/205 391/526/154 394/527/158
f 360/528/206 394/527/158 382/529/146
f 346/530/191 389/531/157 392/532/207
f 350/533/194 384/534/208 362/535/192
f 347/536/209 392/532/207 393/523/155
f 364/537/210 387/538/172 391/526/154
f 350/533/194 383/539/211 390/540/212
f 416/541/2 388/542/213 418/543/2
f 344/544/214 386/545/178 387/538/172
f 362/535/192 385/546/208 358/547/215
f 349/548/216 382/529/146 383/549/211
f 469/550/217 380/551/218 466/552/199
f 364/553/210 404/554/126 344/555/214
f 403/499/195 427/556/43 424/486/91
f 360/557/206 399/558/127 348/559/205
f 407/497/193 425/560/43 427/556/43
f 420/479/83 401/494/128 431/484/189
f 344/555/214 402/561/129 345/562/204
f 348/559/205 408/563/92 364/553/210
f 350/498/194 398/564/130 349/565/216
f 345/566/204 400/567/87 347/568/209
f 347/568/209 401/494/128 346/493/191
f 349/569/216 406/570/84 360/557/206
f 342/571/219 419/572/2 416/573/2
f 396/574/220 410/575/199 343/576/221
f 388/542/213 450/577/27 439/578/151
f 340/286/132 434/579/203 429/580/222
f 343/581/221 413/582/201 388/542/213
f 416/573/2 396/574/220 343/576/221
f 342/583/219 418/543/2 389/531/157
f 446/584/157 417/443/2 366/369/157
f 435/480/2 340/286/132 429/580/222
f 419/572/2 429/580/222 396/574/220
f 429/580/222 414/585/217 396/574/220
f 341/291/83 431/484/189 353/181/86
f 363/293/43 425/560/43 359/292/43
f 424/486/91 363/293/43 357/294/134
f 471/519/203 409/586/223 469/550/217
f 408/563/92 432/490/95 404/554/126
f 406/570/84 430/488/190 399/558/127
f 404/554/126 423/491/89 402/561/129
f 399/558/127 428/489/94 408/563/92
f 403/499/195 421/487/85 398/564/130
f 402/587/129 422/483/87 400/567/87
f 400/567/87 431/484/189 401/494/128
f 398/588/130 426/482/84 406/570/84
f 397/492/96 435/480/2 419/572/2
f 389/531/157 451/505/2 446/584/157
f 439/578/151 411/448/27 367/358/150
f 472/521/27 381/449/187 470/450/27
f 386/524/178 449/509/155 438/513/149
f 394/527/158 448/508/154 441/512/158
f 382/529/146 441/512/158 436/511/146
f 392/532/207 446/584/157 440/510/156
f 390/540/212 437/502/47 384/534/208
f 393/523/155 440/510/156 449/509/155
f 391/526/154 445/504/147 448/508/154
f 390/540/212 443/589/196 447/506/197
f 418/543/2 439/578/151 451/505/2
f 387/538/172 438/590/149 445/504/147
f 384/534/208 444/503/47 385/546/208
f 383/549/211 436/511/146 443/500/196
f 460/454/81 458/591/81 454/478/81
f 461/592/81 456/593/81 462/594/81
f 459/595/81 455/596/81 458/591/81
f 464/309/81 457/597/81 461/592/81
f 462/594/81 453/598/81 465/599/81
f 463/600/81 453/598/81 455/596/81
f 395/601/200 465/599/81 463/600/81
f 409/602/223 465/599/81 380/603/218
f 379/315/137 461/592/81 433/604/202
f 442/605/164 463/600/81 459/595/81
f 433/604/202 462/594/81 409/602/223
f 381/470/187 459/595/81 460/454/81
f 450/577/27 470/450/27 411/448/27
f 434/579/203 469/550/217 414/585/217
f 414/585/217 466/552/199 410/575/199
f 413/582/201 472/521/27 450/577/27
f 412/318/68 471/519/203 434/579/203
f 410/606/199 468/517/201 413/582/201
f 475/607/81 474/320/81 476/608/81
f 478/609/81 476/608/81 477/610/81
f 455/596/81 477/610/81 458/591/81
f 455/596/81 456/593/81 478/609/81
f 478/609/81 457/597/81 475/607/81
f 475/607/81 452/325/81 473/326/81
f 476/608/81 481/476/81 477/610/81
f 474/320/81 480/477/81 476/608/81
f 477/610/81 454/478/81 458/591/81
f 49/1/1 221/132/1 280/2/2
f 50/4/3 236/611/10 241/5/4
f 51/7/5 234/11/5 233/8/6
f 52/10/8 232/612/8 234/11/5
f 53/12/9 237/135/78 236/13/10
f 59/15/11 235/27/20 245/16/12
f 61/18/14 231/30/23 232/19/8
f 30/21/15 1/116/72 5/22/16
f 12/24/18 10/613/62 38/25/19
f 55/6/4 241/5/4 235/27/20
f 9/28/21 12/24/18 40/26/19
f 57/17/13 245/16/12 231/30/23
f 72/31/24 65/54/25 123/32/25
f 66/34/27 124/51/27 122/35/27
f 74/37/28 67/143/39 116/38/29
f 80/40/2 68/123/75 114/41/30
f 76/43/31 72/142/24 120/44/26
f 77/46/33 74/37/28 115/39/28
f 78/48/34 69/52/36 117/49/35
f 76/43/31 121/45/32 124/51/27
f 69/52/36 75/130/37 113/53/37
f 65/54/25 70/56/38 119/55/38
f 70/56/38 77/46/33 125/47/33
f 67/57/39 78/48/34 118/50/34
f 91/59/40 14/614/66 28/60/41
f 329/62/43 246/615/82 62/63/44
f 92/61/42 28/60/41 71/65/46
f 4/67/48 6/81/56 26/68/34
f 7/70/50 13/82/57 24/71/33
f 11/73/51 7/70/50 27/72/38
f 5/75/16 1/129/72 22/76/52
f 12/78/18 9/84/21 23/79/54
f 6/81/56 5/75/16 25/77/53
f 13/82/57 3/89/61 20/83/58
f 9/84/21 8/616/64 16/85/59
f 46/86/2 2/127/74 21/87/60
f 3/89/61 4/617/48 19/90/49
f 10/91/62 12/78/18 17/80/55
f 8/93/64 11/73/51 15/74/25
f 93/95/65 42/136/79 14/96/66
f 13/98/57 41/108/12 37/99/67
f 36/29/22 40/26/19 56/101/68
f 11/102/51 39/115/4 32/103/69
f 40/26/19 38/25/19 54/105/68
f 49/1/1 30/21/15 34/23/17
f 3/100/61 37/99/67 35/106/70
f 7/104/50 32/103/69 41/108/12
f 9/28/21 36/29/22 31/109/71
f 4/111/48 35/137/70 33/112/5
f 6/113/56 33/112/5 34/23/17
f 8/114/64 31/138/71 39/115/4
f 1/116/72 30/21/15 48/117/2
f 29/119/73 45/131/65 43/120/40
f 21/87/60 44/128/42 79/122/47
f 220/124/76 277/164/43 63/125/45
f 2/127/74 43/165/40 44/128/42
f 46/118/2 48/117/2 29/119/73
f 1/129/72 46/86/2 47/88/2
f 75/130/37 80/40/2 161/42/2
f 64/3/2 280/2/2 220/124/76
f 48/117/2 64/3/2 58/126/77
f 58/126/77 63/125/45 45/131/65
f 221/132/1 49/1/1 60/9/7
f 56/101/68 54/105/68 239/133/68
f 53/12/9 56/101/68 243/134/68
f 94/64/45 62/63/44 42/136/79
f 41/108/12 57/17/13 61/18/14
f 39/115/4 55/6/4 59/15/11
f 37/99/67 61/18/14 52/20/8
f 32/103/69 59/15/11 57/17/13
f 36/29/22 53/12/9 50/14/3
f 35/137/70 52/10/8 51/7/5
f 33/112/5 51/7/5 60/9/7
f 31/138/71 50/4/3 55/6/4
f 30/21/15 49/1/1 64/3/2
f 22/76/52 47/88/2 80/40/2
f 68/123/75 79/122/47 157/139/47
f 95/66/47 71/65/46 127/140/80
f 19/69/49 26/68/34 78/48/34
f 27/72/38 24/71/33 77/46/33
f 15/74/25 27/72/38 70/56/38
f 25/77/53 22/76/52 75/130/37
f 23/79/54 76/43/31 66/34/27
f 26/68/34 25/77/53 69/52/36
f 24/71/33 20/83/58 74/37/28
f 23/79/54 16/85/59 72/142/24
f 47/88/2 21/87/60 68/123/75
f 20/83/58 19/90/49 67/143/39
f 17/80/55 66/34/27 73/36/27
f 16/94/59 15/74/25 65/54/25
f 203/144/81 86/150/81 85/145/81
f 87/147/81 84/153/81 83/148/81
f 86/150/81 89/156/81 82/151/81
f 326/152/81 316/171/81 84/153/81
f 88/149/81 83/148/81 81/154/81
f 89/156/81 90/155/81 81/154/81
f 28/157/41 14/159/66 90/155/81
f 42/158/79 88/149/81 90/155/81
f 246/160/82 326/152/81 87/147/81
f 71/162/46 28/157/41 89/156/81
f 62/161/44 87/147/81 88/149/81
f 127/163/80 71/162/46 86/150/81
f 79/122/47 95/66/47 211/141/47
f 45/131/65 63/125/45 94/64/45
f 43/120/40 45/131/65 93/95/65
f 44/128/42 92/61/42 95/66/47
f 277/164/43 329/62/43 94/64/45
f 43/165/40 91/59/40 92/61/42
f 96/166/81 334/172/81 335/167/81
f 99/169/81 96/166/81 97/168/81
f 82/151/81 99/169/81 98/170/81
f 82/151/81 81/154/81 83/148/81
f 99/169/81 83/148/81 84/153/81
f 96/166/81 84/153/81 316/171/81
f 97/168/81 218/174/81 219/173/81
f 335/167/81 479/618/81 218/174/81
f 98/170/81 219/173/81 197/146/81
f 415/175/2 341/291/83 164/176/83
f 361/178/84 356/619/90 165/179/85
f 353/181/86 354/184/87 166/182/87
f 354/184/87 352/620/89 167/185/89
f 356/186/90 357/294/134 168/187/91
f 365/189/92 355/201/93 174/190/93
f 352/192/89 351/204/103 176/193/95
f 143/195/96 147/268/128 104/196/97
f 151/198/99 109/621/100 111/199/100
f 355/201/93 361/178/84 170/180/84
f 153/200/99 111/199/100 108/202/101
f 351/204/103 365/189/92 172/191/94
f 187/205/104 120/33/26 123/32/25
f 122/35/27 124/51/27 181/207/27
f 189/209/28 115/39/28 116/38/29
f 195/211/2 161/42/2 114/41/30
f 191/213/105 121/45/32 120/44/26
f 192/215/33 125/47/33 115/39/28
f 193/216/34 118/50/34 117/49/35
f 124/51/27 121/45/32 191/213/105
f 184/217/35 117/49/35 113/53/37
f 180/206/25 123/32/25 119/55/38
f 185/219/38 119/55/38 125/47/33
f 182/220/39 116/58/29 118/50/34
f 141/221/106 126/622/124 208/222/107
f 177/224/109 379/623/137 467/225/68
f 186/227/46 141/221/106 209/223/108
f 103/229/111 132/298/49 139/230/34
f 106/232/113 140/236/38 137/233/33
f 110/235/115 128/256/25 140/236/38
f 104/237/97 138/243/117 135/238/37
f 111/240/100 130/254/123 136/241/116
f 105/231/112 139/230/34 138/243/117
f 112/234/114 137/233/33 133/244/58
f 108/242/101 136/241/116 129/246/119
f 160/248/2 162/289/2 134/249/121
f 102/245/118 133/244/58 132/251/49
f 109/253/100 131/299/136 130/254/123
f 107/255/120 129/300/119 128/256/25
f 126/257/124 155/295/135 210/258/125
f 150/260/126 154/271/92 112/261/114
f 171/263/43 153/200/99 149/203/102
f 145/264/127 152/277/84 110/265/115
f 169/267/43 151/198/99 153/200/99
f 164/176/83 175/183/88 147/268/128
f 148/269/129 150/260/126 102/262/118
f 154/271/92 145/264/127 106/266/113
f 144/272/130 149/203/102 108/202/101
f 146/274/87 148/296/129 103/275/111
f 147/268/128 146/274/87 105/276/112
f 152/277/84 144/297/130 107/278/120
f 163/279/2 143/195/96 100/197/98
f 156/281/107 159/290/125 142/282/131
f 194/284/47 158/288/108 134/249/121
f 178/285/110 412/318/68 340/286/132
f 158/288/108 156/319/107 101/250/122
f 142/282/131 163/279/2 160/280/2
f 100/239/98 135/238/37 162/289/2
f 190/218/37 113/53/37 161/42/2
f 340/286/132 415/175/2 179/177/2
f 173/287/133 179/177/2 163/279/2
f 159/290/125 178/285/110 173/287/133
f 341/291/83 353/181/86 175/183/88
f 359/292/43 169/267/43 171/263/43
f 363/293/43 171/263/43 168/187/91
f 155/295/135 177/224/109 212/226/110
f 176/193/95 172/191/94 154/271/92
f 174/190/93 170/180/84 152/277/84
f 167/194/89 176/193/95 150/260/126
f 172/191/94 174/190/93 145/264/127
f 165/188/85 168/187/91 149/203/102
f 166/182/87 167/185/89 148/296/129
f 175/183/88 166/182/87 146/274/87
f 170/180/84 165/179/85 144/297/130
f 179/177/2 164/176/83 143/195/96
f 135/238/37 190/218/37 195/211/2
f 157/139/47 194/284/47 183/212/75
f 127/140/80 186/227/46 213/228/47
f 132/298/49 182/220/39 193/216/34
f 140/236/38 185/219/38 192/215/33
f 128/256/25 180/206/25 185/219/38
f 138/243/117 184/217/35 190/218/37
f 181/207/27 191/213/105 136/241/116
f 139/230/34 193/216/34 184/217/35
f 137/233/33 192/215/33 189/209/28
f 136/241/116 191/213/105 187/214/104
f 162/289/2 195/211/2 183/212/75
f 133/244/58 189/209/28 182/210/39
f 188/208/27 181/207/27 130/254/123
f 129/300/119 187/205/104 180/206/25
f 203/144/81 197/146/81 201/301/81
f 199/303/81 200/308/81 204/304/81
f 202/302/81 201/301/81 198/306/81
f 200/308/81 452/325/81 464/309/81
f 196/310/81 199/303/81 205/305/81
f 206/307/81 198/306/81 196/310/81
f 141/312/106 206/307/81 207/311/81
f 207/311/81 205/305/81 155/314/135
f 204/304/81 464/309/81 379/315/137
f 186/317/46 202/302/81 206/307/81
f 205/305/81 204/304/81 177/316/109
f 127/163/80 203/144/81 202/302/81
f 211/141/47 213/228/47 194/284/47
f 159/290/125 210/258/125 212/226/110
f 156/281/107 208/259/107 210/258/125
f 213/228/47 209/223/108 158/288/108
f 212/226/110 467/225/68 412/318/68
f 209/223/108 208/222/107 156/319/107
f 474/320/81 473/326/81 214/321/81
f 215/322/81 214/321/81 217/323/81
f 216/324/81 217/323/81 198/306/81
f 199/303/81 196/310/81 198/306/81
f 200/308/81 199/303/81 217/323/81
f 452/325/81 200/308/81 214/321/81
f 219/173/81 218/174/81 215/322/81
f 218/174/81 479/618/81 474/320/81
f 197/146/81 219/173/81 216/324/81
f 280/2/2 221/132/1 284/327/1
f 241/5/4 236/611/10 285/329/3
f 233/8/6 234/11/5 286/331/5
f 234/11/5 232/612/8 287/333/8
f 236/13/10 237/135/78 288/334/9
f 245/16/12 235/27/20 294/336/11
f 232/19/8 231/30/23 296/338/14
f 263/340/15 267/422/182 226/341/139
f 271/343/141 238/624/179 242/344/142
f 235/27/20 241/5/4 290/330/4
f 273/345/141 242/344/142 230/346/143
f 231/30/23 245/16/12 292/337/13
f 307/348/145 373/501/153 376/349/146
f 375/351/47 377/368/47 301/352/47
f 309/354/147 368/364/147 369/355/148
f 315/357/2 417/443/2 367/358/150
f 311/360/152 374/507/198 373/361/153
f 312/363/154 378/373/154 368/364/147
f 313/365/155 371/375/155 370/366/156
f 377/368/47 374/507/198 311/360/152
f 304/367/156 370/366/156 366/369/157
f 300/350/146 376/349/146 372/371/158
f 305/372/158 372/371/158 378/373/154
f 302/374/149 369/514/148 371/375/155
f 261/376/159 247/625/180 328/377/160
f 297/379/162 246/615/82 329/62/43
f 306/381/164 261/376/159 330/378/161
f 225/383/165 252/451/178 259/384/155
f 228/386/167 260/390/158 257/387/154
f 240/389/169 248/410/146 260/390/158
f 226/391/139 258/397/171 255/392/157
f 250/394/170 256/452/188 230/395/143
f 227/385/166 259/384/155 258/397/171
f 244/388/168 257/387/154 253/398/172
f 230/395/143 256/452/188 249/400/174
f 281/402/2 282/442/2 254/403/176
f 224/399/173 253/398/172 252/405/178
f 251/407/170 250/394/170 242/396/142
f 229/409/175 249/453/174 248/410/146
f 247/411/180 275/445/186 331/412/181
f 270/414/67 274/425/12 244/415/168
f 291/417/68 273/345/141 269/347/144
f 265/418/69 272/431/4 240/419/169
f 289/421/68 271/343/141 273/345/141
f 284/327/1 295/332/138 267/422/182
f 268/423/70 270/414/67 224/416/173
f 274/425/12 265/418/69 228/420/167
f 264/426/71 269/347/144 230/346/143
f 266/428/5 268/446/70 225/429/165
f 267/422/182 266/428/5 227/430/166
f 272/431/4 264/447/71 229/432/175
f 283/433/2 263/340/15 222/342/140
f 276/435/160 279/444/185 262/436/183
f 314/438/27 278/441/161 254/403/176
f 298/439/163 277/164/43 220/124/76
f 278/441/161 276/471/160 223/404/177
f 262/436/183 283/433/2 281/434/2
f 222/393/140 255/392/157 282/442/2
f 310/370/157 366/369/157 417/443/2
f 220/124/76 280/2/2 299/328/2
f 293/440/184 299/328/2 283/433/2
f 279/444/185 298/439/163 293/440/184
f 221/132/1 233/8/6 295/332/138
f 243/134/68 239/133/68 289/421/68
f 243/134/68 291/417/68 288/334/9
f 275/445/186 297/379/162 332/380/163
f 296/338/14 292/337/13 274/425/12
f 294/336/11 290/330/4 272/431/4
f 287/339/8 296/338/14 270/414/67
f 292/337/13 294/336/11 265/418/69
f 285/335/3 288/334/9 269/347/144
f 286/331/5 287/333/8 268/446/70
f 295/332/138 286/331/5 266/428/5
f 290/330/4 285/329/3 264/447/71
f 299/328/2 284/327/1 263/340/15
f 255/392/157 310/370/157 315/357/2
f 411/448/27 314/438/27 303/359/151
f 381/449/187 306/381/164 333/382/27
f 252/451/178 302/374/149 313/365/155
f 260/390/158 305/372/158 312/363/154
f 248/410/146 300/350/146 305/372/158
f 258/397/171 304/367/156 310/370/157
f 301/352/47 311/360/152 256/452/188
f 259/384/155 313/365/155 304/367/156
f 257/387/154 312/363/154 309/354/147
f 256/452/188 311/360/152 307/362/145
f 282/442/2 315/357/2 303/359/151
f 253/398/172 309/354/147 302/356/149
f 308/353/47 301/352/47 250/394/170
f 249/453/174 307/348/145 300/350/146
f 460/454/81 454/478/81 321/455/81
f 319/457/81 320/462/81 323/458/81
f 322/456/81 321/455/81 318/460/81
f 320/462/81 316/171/81 326/152/81
f 317/463/81 319/457/81 324/459/81
f 325/461/81 318/460/81 317/463/81
f 261/465/159 325/461/81 327/464/81
f 327/464/81 324/459/81 275/467/186
f 323/458/81 326/152/81 246/160/82
f 306/469/164 322/456/81 325/461/81
f 324/459/81 323/458/81 297/468/162
f 381/470/187 460/454/81 322/456/81
f 470/450/27 333/382/27 314/438/27
f 331/412/181 332/380/163 298/439/163
f 328/413/160 331/412/181 279/444/185
f 333/382/27 330/378/161 278/441/161
f 332/380/163 329/62/43 277/164/43
f 330/378/161 328/377/160 276/471/160
f 335/167/81 334/172/81 336/472/81
f 337/473/81 336/472/81 339/474/81
f 338/475/81 339/474/81 318/460/81
f 319/457/81 317/463/81 318/460/81
f 320/462/81 319/457/81 339/474/81
f 316/171/81 320/462/81 336/472/81
f 481/476/81 480/477/81 337/473/81
f 480/477/81 479/618/81 335/167/81
f 454/478/81 481/476/81 338/475/81
f 420/479/83 341/291/83 415/175/2
f 421/481/85 356/619/90 361/178/84
f 422/483/87 354/184/87 353/181/86
f 423/485/89 352/620/89 354/184/87
f 424/486/91 357/294/134 356/186/90
f 430/488/190 355/201/93 365/189/92
f 432/490/95 351/204/103 352/192/89
f 397/492/96 342/571/219 346/493/191
f 362/495/192 358/626/215 405/496/193
f 426/482/84 361/178/84 355/201/93
f 350/498/194 362/495/192 407/497/193
f 428/489/94 365/189/92 351/204/103
f 443/500/196 436/511/146 376/349/146
f 437/502/47 377/368/47 375/351/47
f 445/504/147 438/590/149 369/355/148
f 451/505/2 439/578/151 367/358/150
f 447/506/197 443/589/196 373/361/153
f 448/508/154 445/504/147 368/364/147
f 449/509/155 440/510/156 370/366/156
f 447/506/197 374/507/198 377/368/47
f 440/510/156 446/584/157 366/369/157
f 436/511/146 441/512/158 372/371/158
f 441/512/158 448/508/154 378/373/154
f 438/513/149 449/509/155 371/375/155
f 466/515/199 380/627/218 395/516/200
f 467/225/68 379/623/137 433/518/202
f 468/517/201 395/516/200 442/520/164
f 345/522/204 347/536/209 393/523/155
f 348/525/205 364/537/210 391/526/154
f 360/528/206 348/525/205 394/527/158
f 346/530/191 342/583/219 389/531/157
f 350/533/194 390/540/212 384/534/208
f 347/536/209 346/530/191 392/532/207
f 364/537/210 344/544/214 387/538/172
f 350/533/194 349/628/216 383/539/211
f 416/541/2 343/581/221 388/542/213
f 344/544/214 345/629/204 386/545/178
f 362/535/192 384/534/208 385/546/208
f 349/548/216 360/528/206 382/529/146
f 469/550/217 409/586/223 380/551/218
f 364/553/210 408/563/92 404/554/126
f 403/499/195 407/497/193 427/556/43
f 360/557/206 406/570/84 399/558/127
f 407/497/193 405/496/193 425/560/43
f 420/479/83 397/492/96 401/494/128
f 344/555/214 404/554/126 402/561/129
f 348/559/205 399/558/127 408/563/92
f 350/498/194 403/499/195 398/564/130
f 345/566/204 402/587/129 400/567/87
f 347/568/209 400/567/87 401/494/128
f 349/569/216 398/588/130 406/570/84
f 342/571/219 397/492/96 419/572/2
f 396/574/220 414/585/217 410/575/199
f 388/542/213 413/582/201 450/577/27
f 340/286/132 412/318/68 434/579/203
f 343/581/221 410/606/199 413/582/201
f 416/573/2 419/572/2 396/574/220
f 342/583/219 416/541/2 418/543/2
f 446/584/157 451/505/2 417/443/2
f 435/480/2 415/175/2 340/286/132
f 419/572/2 435/480/2 429/580/222
f 429/580/222 434/579/203 414/585/217
f 341/291/83 420/479/83 431/484/189
f 363/293/43 427/556/43 425/560/43
f 424/486/91 427/556/43 363/293/43
f 471/519/203 433/518/202 409/586/223
f 408/563/92 428/489/94 432/490/95
f 406/570/84 426/482/84 430/488/190
f 404/554/126 432/490/95 423/491/89
f 399/558/127 430/488/190 428/489/94
f 403/499/195 424/486/91 421/487/85
f 402/587/129 423/485/89 422/483/87
f 400/567/87 422/483/87 431/484/189
f 398/588/130 421/481/85 426/482/84
f 397/492/96 420/479/83 435/480/2
f 389/531/157 418/543/2 451/505/2
f 439/578/151 450/577/27 411/448/27
f 472/521/27 442/520/164 381/449/187
f 386/524/178 393/523/155 449/509/155
f 394/527/158 391/526/154 448/508/154
f 382/529/146 394/527/158 441/512/158
f 392/532/207 389/531/157 446/584/157
f 390/540/212 447/506/197 437/502/47
f 393/523/155 392/532/207 440/510/156
f 391/526/154 387/538/172 445/504/147
f 390/540/212 383/539/211 443/589/196
f 418/543/2 388/542/213 439/578/151
f 387/538/172 386/545/178 438/590/149
f 384/534/208 437/502/47 444/503/47
f 383/549/211 382/529/146 436/511/146
f 460/454/81 459/595/81 458/591/81
f 461/592/81 457/597/81 456/593/81
f 459/595/81 463/600/81 455/596/81
f 464/309/81 452/325/81 457/597/81
f 462/594/81 456/593/81 453/598/81
f 463/600/81 465/599/81 453/598/81
f 395/601/200 380/603/218 465/599/81
f 409/602/223 462/594/81 465/599/81
f 379/315/137 464/309/81 461/592/81
f 442/605/164 395/601/200 463/600/81
f 433/604/202 461/592/81 462/594/81
f 381/470/187 442/605/164 459/595/81
f 450/577/27 472/521/27 470/450/27
f 434/579/203 471/519/203 469/550/217
f 414/585/217 469/550/217 466/552/199
f 413/582/201 468/517/201 472/521/27
f 412/318/68 467/225/68 471/519/203
f 410/606/199 466/515/199 468/517/201
f 475/607/81 473/326/81 474/320/81
f 478/609/81 475/607/81 476/608/81
f 455/596/81 478/609/81 477/610/81
f 455/596/81 453/598/81 456/593/81
f 478/609/81 456/593/81 457/597/81
f 475/607/81 457/597/81 452/325/81
f 476/608/81 480/477/81 481/476/81
f 474/320/81 479/618/81 480/477/81
f 477/610/81 481/476/81 454/478/81
o fancy_picture_frame_01_canvas
v 0.269317 0.199143 0.006579
v -0.270058 0.199143 0.006579
v 0.269317 -0.201145 0.006579
v -0.270058 -0.201145 0.006579
vn -0.0000 -0.0000 1.0000
vt 0.032255 0.874701
vt 0.968632 0.179783
vt 0.968633 0.874701
vt 0.032254 0.179784
s 0
usemtl fancy_picture_frame_01_canvas
f 483/630/224 484/631/224 482/632/224
f 483/630/224 485/633/224 484/631/224
