# Blender 5.1.2
# www.blender.org
mtllib window.mtl
o Window
v 3.500641 0.703369 1.600000
v 3.500610 0.823369 1.486261
v 3.500641 2.503369 1.600000
v 3.500610 2.383368 1.486261
v 3.440641 0.703369 1.600000
v 3.440642 0.823369 1.480000
v 3.440641 2.503369 1.600000
v 3.500610 0.823369 0.526261
v 3.440642 2.383368 1.480000
v 3.500610 2.383368 0.526261
v 3.500641 0.703369 0.400000
v 3.500641 2.503369 0.400000
v 3.440641 0.703369 0.400000
v 3.440642 0.823369 0.520000
v 3.440641 2.503369 0.400000
v 3.440642 2.383368 0.520000
v 3.500641 2.383368 1.480000
v 3.500641 2.383368 0.520000
v 3.500641 0.823369 1.480000
v 3.500641 0.823369 0.520000
v 3.440641 2.383368 0.526261
v 3.440641 2.383368 1.486261
v 3.440641 0.823369 1.486261
v 3.440641 0.823369 0.526261
v 3.500610 2.383368 1.480000
v 3.500610 0.823369 1.480000
v 3.440642 0.823369 0.526261
v 3.440642 2.383368 0.526261
vn -0.0000 -0.0000 1.0000
vn -1.0000 -0.0000 -0.0000
vn -0.0000 -0.0000 -1.0000
vn 1.0000 -0.0000 -0.0000
vn -0.0000 -1.0000 -0.0000
vn -0.0000 1.0000 -0.0000
vt 0.625000 0.000000
vt 0.375000 0.250000
vt 0.375000 0.000000
vt 0.625000 0.500000
vt 0.375000 0.500000
vt 0.608333 0.473696
vt 0.625000 0.250000
vt 0.391667 0.273696
vt 0.375000 0.750000
vt 0.608333 0.775000
vt 0.625000 0.750000
vt 0.625000 1.000000
vt 0.375000 1.000000
vt 0.391667 0.775000
vt 0.391667 0.975000
vt 0.125000 0.750000
vt 0.125000 0.500000
vt 0.875000 0.500000
vt 0.375000 0.000004
vt 0.625000 0.000134
vt 0.625000 0.000004
vt 0.625000 0.498370
vt 0.375000 0.498370
vt 0.625000 0.749996
vt 0.375000 0.749996
vt 0.373370 0.500000
vt 0.373370 0.749866
vt 0.875000 0.749866
vt 0.626630 0.749866
vt 0.626630 0.500000
vt 0.375000 0.249870
vt 0.625000 0.249870
vt 0.625000 0.500130
vt 0.375000 0.500134
vt 0.625000 0.500134
vt 0.625000 0.998370
vt 0.375000 0.998370
vt 0.125000 0.500130
vt 0.126630 0.500134
vt 0.375000 0.500130
vt 0.873370 0.500134
vt 0.875000 0.500130
vt 0.608333 0.273696
vt 0.391667 0.473696
vt 0.608333 0.975000
vt 0.875000 0.750000
vt 0.375000 0.000134
vt 0.125000 0.749866
vt 0.125000 0.749996
vt 0.875000 0.749996
vt 0.126630 0.750000
vt 0.873370 0.750000
s 0
usemtl 
f 3/1/1 5/2/1 1/3/1
f 15/4/2 13/5/2 21/6/2
f 7/7/2 23/8/2 5/2/2
f 15/4/3 11/9/3 13/5/3
f 18/10/4 12/11/4 3/12/4
f 1/13/4 20/14/4 19/15/4
f 13/5/5 1/16/5 5/17/5
f 7/18/6 12/11/6 15/4/6
f 19/19/3 25/20/3 17/21/3
f 14/5/4 28/22/4 27/23/4
f 14/5/1 18/24/1 16/4/1
f 20/25/6 27/26/6 8/27/6
f 6/17/6 8/27/6 27/26/6
f 18/24/5 25/28/5 10/29/5
f 28/30/5 25/28/5 9/18/5
f 4/1/3 23/31/3 22/32/3
f 21/33/1 27/34/1 28/35/1
f 2/13/2 25/36/2 26/37/2
f 23/38/6 6/39/6 24/40/6
f 9/41/5 22/42/5 28/35/5
f 3/1/1 7/7/1 5/2/1
f 21/6/2 22/43/2 7/7/2
f 13/5/2 5/2/2 23/8/2
f 13/5/2 23/8/2 24/44/2
f 21/6/2 7/7/2 15/4/2
f 13/5/2 24/44/2 21/6/2
f 7/7/2 22/43/2 23/8/2
f 15/4/3 12/11/3 11/9/3
f 18/10/4 20/14/4 11/9/4
f 3/12/4 1/13/4 19/15/4
f 3/12/4 19/15/4 17/45/4
f 18/10/4 11/9/4 12/11/4
f 3/12/4 17/45/4 18/10/4
f 1/13/4 11/9/4 20/14/4
f 13/5/5 11/9/5 1/16/5
f 7/18/6 3/46/6 12/11/6
f 19/19/3 26/47/3 25/20/3
f 14/5/4 16/4/4 28/22/4
f 14/5/1 20/25/1 18/24/1
f 8/27/6 26/48/6 19/49/6
f 20/25/6 14/5/6 27/26/6
f 8/27/6 19/49/6 20/25/6
f 6/17/6 26/48/6 8/27/6
f 28/30/5 16/4/5 18/24/5
f 18/24/5 17/50/5 25/28/5
f 10/29/5 28/30/5 18/24/5
f 28/30/5 10/29/5 25/28/5
f 4/1/3 2/3/3 23/31/3
f 21/33/1 24/40/1 27/34/1
f 2/13/2 4/12/2 25/36/2
f 23/38/6 2/16/6 26/51/6
f 6/39/6 27/34/6 24/40/6
f 23/38/6 26/51/6 6/39/6
f 9/41/5 25/52/5 4/46/5
f 22/42/5 21/33/5 28/35/5
f 9/41/5 4/46/5 22/42/5
o Window_Glass
v 3.500610 0.823369 1.486261
v 3.500610 2.383368 1.486261
v 3.440610 0.823369 1.486261
v 3.440610 2.383368 1.486261
v 3.500610 0.823369 0.526261
v 3.500610 2.383368 0.526261
v 3.440610 0.823369 0.526261
v 3.440610 2.383368 0.526261
vn -0.0000 -0.0000 1.0000
vn -1.0000 -0.0000 -0.0000
vn -0.0000 -0.0000 -1.0000
vn 1.0000 -0.0000 -0.0000
vn -0.0000 -1.0000 -0.0000
vn -0.0000 1.0000 -0.0000
vt 0.625000 0.000000
vt 0.375000 0.250000
vt 0.375000 0.000000
vt 0.625000 0.250000
vt 0.375000 0.500000
vt 0.625000 0.500000
vt 0.375000 0.750000
vt 0.625000 0.750000
vt 0.375000 1.000000
vt 0.125000 0.750000
vt 0.125000 0.500000
vt 0.875000 0.500000
vt 0.625000 1.000000
vt 0.875000 0.750000
s 0
usemtl Material.003
f 30/53/7 31/54/7 29/55/7
f 32/56/8 35/57/8 31/54/8
f 36/58/9 33/59/9 35/57/9
f 34/60/10 29/61/10 33/59/10
f 35/57/11 29/62/11 31/63/11
f 32/64/12 34/60/12 36/58/12
f 30/53/7 32/56/7 31/54/7
f 32/56/8 36/58/8 35/57/8
f 36/58/9 34/60/9 33/59/9
f 34/60/10 30/65/10 29/61/10
f 35/57/11 33/59/11 29/62/11
f 32/64/12 30/66/12 34/60/12
