# Blender 5.1.1
# www.blender.org
mtllib smoke.mtl
o Zylinder
v -0.010000 0.000000 -0.600000
v 0.010000 -0.000000 -0.600000
v -0.010000 0.000000 0.600000
v 0.010000 -0.000000 0.600000
v -0.010000 0.223964 0.588471
v 0.010000 0.223964 0.588471
v -0.010000 0.439321 0.554328
v 0.010000 0.439321 0.554328
v -0.010000 0.637795 0.498882
v 0.010000 0.637795 0.498882
v -0.010000 0.811760 0.424264
v 0.010000 0.811760 0.424264
v -0.010000 0.954528 0.333342
v 0.010000 0.954528 0.333342
v -0.010000 1.060615 0.229610
v 0.010000 1.060615 0.229610
v -0.010000 1.125943 0.117054
v 0.010000 1.125943 0.117054
v -0.010000 1.148001 0.000000
v 0.010000 1.148001 0.000000
v -0.010000 1.125943 -0.117054
v 0.010000 1.125943 -0.117054
v -0.010000 1.060615 -0.229610
v 0.010000 1.060615 -0.229610
v -0.010000 0.954528 -0.333342
v 0.010000 0.954528 -0.333342
v -0.010000 0.811760 -0.424264
v 0.010000 0.811760 -0.424264
v -0.010000 0.637795 -0.498882
v 0.010000 0.637795 -0.498882
v -0.010000 0.439321 -0.554328
v 0.010000 0.439321 -0.554328
v -0.010000 0.223964 -0.588471
v 0.010000 0.223964 -0.588471
v -0.010000 -0.022092 -0.598863
v -0.010000 -0.022092 -0.598863
v 0.010000 -0.022092 -0.598863
v -0.010000 -0.022092 0.598863
v -0.010000 -0.022092 0.598863
v 0.010000 -0.022092 0.598863
v -0.010000 -0.022092 -0.598863
v 0.002483 -0.022092 -0.598863
v 0.002502 -0.022092 -0.598863
v -0.010000 -0.022092 0.598863
v 0.002502 -0.022092 0.598863
v -0.010000 -0.022092 0.150098
v -0.003753 -0.022092 -0.224737
v -0.010000 -0.022092 0.150098
vn -0.0000 -0.1356 -0.9908
vn -0.0000 -0.0530 0.9986
vn -0.0000 0.0514 0.9987
vn -0.0000 0.1566 0.9877
vn -0.0000 0.2691 0.9631
vn -0.0000 0.3942 0.9190
vn -0.0000 0.5372 0.8435
vn -0.0000 0.6991 0.7150
vn -0.0000 0.8649 0.5020
vn -0.0000 0.9827 0.1852
vn -0.0000 0.9827 -0.1852
vn -0.0000 0.8649 -0.5020
vn -0.0000 0.6991 -0.7150
vn -0.0000 0.5372 -0.8435
vn -0.0000 0.3942 -0.9190
vn -0.0000 0.2691 -0.9631
vn 1.0000 -0.0000 -0.0000
vn -0.0000 0.1566 -0.9877
vn -0.0000 0.0514 -0.9987
vn -1.0000 -0.0000 -0.0000
vn -0.0000 -1.0000 -0.0000
vn -0.0000 1.0000 -0.0000
vn -0.0000 -0.0514 -0.9987
vn -0.0000 -0.0514 0.9987
vt 1.000000 1.000000
vt 0.996917 0.500000
vt 0.500000 0.500000
vt 0.503083 0.500000
vt 0.500000 1.000000
vt 0.468750 0.500000
vt 0.468750 1.000000
vt 0.437500 0.500000
vt 0.437500 1.000000
vt 0.406250 0.500000
vt 0.406250 1.000000
vt 0.375000 0.500000
vt 0.375000 1.000000
vt 0.343750 0.500000
vt 0.343750 1.000000
vt 0.312500 0.500000
vt 0.312500 1.000000
vt 0.281250 0.500000
vt 0.281250 1.000000
vt 0.250000 0.500000
vt 0.250000 1.000000
vt 0.218750 0.500000
vt 0.218750 1.000000
vt 0.187500 0.500000
vt 0.187500 1.000000
vt 0.156250 0.500000
vt 0.156250 1.000000
vt 0.125000 0.500000
vt 0.125000 1.000000
vt 0.093750 0.500000
vt 0.093750 1.000000
vt 0.062500 0.500000
vt 0.254619 0.010455
vt 0.028269 0.341844
vt 0.028269 0.158156
vt 0.062500 1.000000
vt 0.031250 0.500000
vt 0.031250 1.000000
vt 0.000000 0.500000
vt 0.580294 0.080294
vt 0.580294 0.419706
vt 0.750000 0.490000
vt 0.625000 0.500237
vt 0.718729 0.749763
vt 0.718730 0.500237
vt 0.875000 0.656271
vt 0.875000 0.500237
vt 0.875000 0.749763
vt 0.718966 0.500237
vt 0.796909 0.578180
vt 0.781270 0.500237
vt 0.781271 0.656271
vt 0.781271 0.749763
vt 1.000000 0.500000
vt 0.996917 1.000000
vt 0.996917 0.812541
vt 0.996917 0.812067
vt 0.503083 0.812541
vt 0.503083 1.000000
vt 0.050447 0.116663
vt 0.080294 0.080294
vt 0.116663 0.050447
vt 0.158156 0.028269
vt 0.203178 0.014612
vt 0.250000 0.010000
vt 0.254619 0.489545
vt 0.250000 0.490000
vt 0.203178 0.485388
vt 0.158156 0.471731
vt 0.116663 0.449553
vt 0.080294 0.419706
vt 0.050447 0.383337
vt 0.014612 0.296822
vt 0.010000 0.250000
vt 0.014612 0.203178
vt 0.000000 1.000000
vt 0.754619 0.489545
vt 0.754619 0.010455
vt 0.750000 0.010000
vt 0.703178 0.014612
vt 0.658156 0.028269
vt 0.616663 0.050447
vt 0.550447 0.116663
vt 0.528269 0.158156
vt 0.514612 0.203178
vt 0.510000 0.250000
vt 0.514612 0.296822
vt 0.528269 0.341844
vt 0.550447 0.383337
vt 0.616663 0.449553
vt 0.658156 0.471731
vt 0.703178 0.485388
vt 0.625000 0.749763
vt 0.781271 0.500237
s 0
usemtl 
f 2/1/1 35/2/1 41/2/1
f 3/3/2 44/4/2 38/4/2
f 4/5/3 5/6/3 3/3/3
f 6/7/4 7/8/4 5/6/4
f 8/9/5 9/10/5 7/8/5
f 10/11/6 11/12/6 9/10/6
f 12/13/7 13/14/7 11/12/7
f 14/15/8 15/16/8 13/14/8
f 16/17/9 17/18/9 15/16/9
f 18/19/10 19/20/10 17/18/10
f 20/21/11 21/22/11 19/20/11
f 22/23/12 23/24/12 21/22/12
f 24/25/13 25/26/13 23/24/13
f 26/27/14 27/28/14 25/26/14
f 28/29/15 29/30/15 27/28/15
f 30/31/16 31/32/16 29/30/16
f 40/33/17 24/34/17 16/35/17
f 32/36/18 33/37/18 31/32/18
f 34/38/19 1/39/19 33/37/19
f 11/40/20 27/41/20 1/42/20
f 37/43/21 45/44/21 43/45/21
f 46/46/21 35/47/21 48/46/21
f 38/48/22 46/46/22 48/46/22
f 35/47/21 42/49/21 47/50/21
f 41/51/17 46/52/17 44/53/17
f 41/2/23 1/54/23 2/1/23
f 2/1/23 37/55/23 43/56/23
f 2/1/23 43/56/23 42/57/23
f 35/2/17 36/2/17 41/2/17
f 2/1/23 42/57/23 35/2/23
f 45/58/24 40/59/24 4/5/24
f 45/58/24 4/5/24 3/3/24
f 44/4/17 39/4/17 38/4/17
f 38/4/24 45/58/24 3/3/24
f 4/5/3 6/7/3 5/6/3
f 6/7/4 8/9/4 7/8/4
f 8/9/5 10/11/5 9/10/5
f 10/11/6 12/13/6 11/12/6
f 12/13/7 14/15/7 13/14/7
f 14/15/8 16/17/8 15/16/8
f 16/17/9 18/19/9 17/18/9
f 18/19/10 20/21/10 19/20/10
f 20/21/11 22/23/11 21/22/11
f 22/23/12 24/25/12 23/24/12
f 24/25/13 26/27/13 25/26/13
f 26/27/14 28/29/14 27/28/14
f 28/29/15 30/31/15 29/30/15
f 30/31/16 32/36/16 31/32/16
f 14/60/17 12/61/17 10/62/17
f 10/62/17 8/63/17 6/64/17
f 6/64/17 4/65/17 40/33/17
f 40/33/17 37/66/17 2/67/17
f 2/67/17 34/68/17 32/69/17
f 32/69/17 30/70/17 28/71/17
f 28/71/17 26/72/17 24/34/17
f 24/34/17 22/73/17 20/74/17
f 20/74/17 18/75/17 16/35/17
f 16/35/17 14/60/17 10/62/17
f 10/62/17 6/64/17 40/33/17
f 40/33/17 2/67/17 32/69/17
f 32/69/17 28/71/17 24/34/17
f 24/34/17 20/74/17 16/35/17
f 16/35/17 10/62/17 40/33/17
f 40/33/17 32/69/17 24/34/17
f 32/36/18 34/38/18 33/37/18
f 34/38/19 2/76/19 1/39/19
f 41/77/20 44/78/20 3/79/20
f 3/79/20 5/80/20 7/81/20
f 7/81/20 9/82/20 11/40/20
f 11/40/20 13/83/20 15/84/20
f 15/84/20 17/85/20 19/86/20
f 19/86/20 21/87/20 23/88/20
f 23/88/20 25/89/20 27/41/20
f 27/41/20 29/90/20 31/91/20
f 31/91/20 33/92/20 1/42/20
f 1/42/20 41/77/20 3/79/20
f 3/79/20 7/81/20 11/40/20
f 11/40/20 15/84/20 19/86/20
f 19/86/20 23/88/20 27/41/20
f 27/41/20 31/91/20 1/42/20
f 1/42/20 3/79/20 11/40/20
f 11/40/20 19/86/20 27/41/20
f 37/43/21 40/93/21 45/44/21
f 47/50/21 42/49/21 43/45/21
f 43/45/21 45/44/21 38/48/21
f 43/45/21 38/48/21 48/46/21
f 47/50/21 43/45/21 48/46/21
f 46/46/17 36/47/17 35/47/17
f 35/47/21 47/50/21 48/46/21
f 38/48/17 39/48/17 46/46/17
f 41/51/21 36/94/21 46/52/21
f 46/52/21 39/53/21 44/53/21
