# Blender 5.1.2
# www.blender.org
mtllib wooden_table_02_1k.mtl
o wooden_table_02
v 0.617208 0.433585 0.647106
v 0.611302 0.433585 0.653012
v 0.617208 0.466913 0.647106
v 0.579725 0.470388 0.615529
v 0.611302 0.466913 0.653012
v -0.511302 0.433585 0.653012
v -0.517208 0.433585 0.647106
v -0.479725 0.470388 0.615529
v -0.517208 0.466913 0.647106
v -0.511302 0.466913 0.653012
v 0.611302 0.433585 -0.053012
v 0.617208 0.433585 -0.047106
v 0.579725 0.470388 -0.015529
v 0.617208 0.466913 -0.047106
v 0.611302 0.466913 -0.053012
v -0.517208 0.433585 -0.047106
v -0.511302 0.433585 -0.053012
v -0.479725 0.470388 -0.015529
v -0.511302 0.466913 -0.053012
v -0.517208 0.466913 -0.047106
v -0.511302 0.430484 0.647106
v 0.611302 0.430484 0.647106
v -0.511302 0.430484 -0.047106
v 0.611302 0.430484 -0.047106
v -0.479110 0.455048 0.614780
v 0.579110 0.455048 0.614780
v -0.479110 0.455048 -0.014780
v 0.579110 0.455048 -0.014780
v 0.579110 0.431742 0.614780
v 0.581243 0.430484 0.616922
v -0.481243 0.430484 0.616922
v -0.479110 0.431742 0.614780
v 0.581243 0.430484 -0.016922
v 0.579110 0.431742 -0.014780
v -0.481243 0.430484 -0.016922
v -0.479110 0.431742 -0.014780
v 0.611302 0.470388 0.647106
v -0.511302 0.470388 0.647106
v -0.511302 0.470388 -0.047106
v 0.611302 0.470388 -0.047106
v -0.413096 -0.000074 0.051801
v -0.408671 0.002398 0.052014
v -0.412882 0.002398 0.056225
v -0.371284 0.455281 0.097644
v -0.367073 0.455281 0.093432
v -0.458809 0.000074 0.051809
v -0.458670 0.002398 0.056225
v -0.462877 0.002544 0.052027
v -0.436929 0.455281 0.093432
v -0.432722 0.455281 0.097644
v -0.413089 0.000074 0.006088
v -0.412869 0.002544 0.002019
v -0.408671 0.002398 0.006226
v -0.367073 0.455281 0.031995
v -0.371284 0.455281 0.027787
v -0.458816 0.001530 0.006081
v -0.462877 0.004151 0.006219
v -0.458677 0.004151 0.002020
v -0.432722 0.455281 0.027787
v -0.436929 0.455281 0.031995
v -0.413096 -0.000074 0.548199
v -0.408671 0.002398 0.547986
v -0.412882 0.002398 0.543775
v -0.371284 0.455281 0.502357
v -0.367073 0.455281 0.506568
v -0.458809 0.000074 0.548191
v -0.458670 0.002398 0.543775
v -0.462877 0.002544 0.547973
v -0.436929 0.455281 0.506568
v -0.432722 0.455281 0.502357
v -0.413089 0.000074 0.593912
v -0.412869 0.002544 0.597981
v -0.408671 0.002398 0.593774
v -0.367073 0.455281 0.568005
v -0.371284 0.455281 0.572213
v -0.458816 0.001530 0.593919
v -0.462877 0.004151 0.593781
v -0.458677 0.004151 0.597981
v -0.432722 0.455281 0.572213
v -0.436929 0.455281 0.568005
v 0.513096 -0.000074 0.051801
v 0.508671 0.002397 0.052014
v 0.512882 0.002398 0.056225
v 0.471284 0.455281 0.097643
v 0.467073 0.455281 0.093432
v 0.558809 0.000074 0.051809
v 0.558670 0.002398 0.056225
v 0.562877 0.002544 0.052027
v 0.536929 0.455281 0.093432
v 0.532722 0.455281 0.097643
v 0.513089 0.000074 0.006088
v 0.512869 0.002544 0.002019
v 0.508671 0.002397 0.006226
v 0.467073 0.455281 0.031995
v 0.471284 0.455281 0.027787
v 0.558816 0.001530 0.006081
v 0.562877 0.004151 0.006219
v 0.558677 0.004151 0.002019
v 0.532722 0.455281 0.027787
v 0.536929 0.455281 0.031995
v 0.513096 -0.000074 0.548199
v 0.508671 0.002397 0.547986
v 0.512882 0.002398 0.543775
v 0.471284 0.455281 0.502356
v 0.467073 0.455281 0.506568
v 0.558809 0.000074 0.548191
v 0.558670 0.002398 0.543775
v 0.562877 0.002544 0.547973
v 0.536929 0.455281 0.506568
v 0.532722 0.455281 0.502356
v 0.513089 0.000074 0.593912
v 0.512869 0.002544 0.597981
v 0.508671 0.002397 0.593774
v 0.467073 0.455281 0.568005
v 0.471284 0.455281 0.572213
v 0.558816 0.001530 0.593919
v 0.562877 0.004151 0.593781
v 0.558677 0.004151 0.597980
v 0.532722 0.455281 0.572213
v 0.536929 0.455281 0.568005
vn 0.9986 -0.0453 -0.0289
vn 1.0000 -0.0018 0.0010
vn 1.0000 0.0032 0.0018
vn -0.0180 -0.0276 -0.9995
vn 0.0014 -0.0025 -1.0000
vn 0.0018 0.0032 -1.0000
vn -0.0000 1.0000 -0.0000
vn 0.0180 -0.0276 0.9995
vn -0.0014 -0.0025 1.0000
vn -0.0018 0.0032 1.0000
vn -0.9986 -0.0453 0.0289
vn -1.0000 -0.0018 -0.0010
vn -1.0000 0.0032 -0.0018
vn 0.0010 -1.0000 0.0010
vn 0.4481 0.6926 0.5652
vn 0.0012 1.0000 0.0012
vn -0.0010 -1.0000 0.0011
vn -0.0011 1.0000 0.0011
vn -0.5652 0.6926 0.4481
vn 0.0010 -1.0000 -0.0011
vn 0.0011 1.0000 -0.0011
vn 0.5652 0.6926 -0.4481
vn -0.0010 -1.0000 -0.0010
vn -0.0012 1.0000 -0.0012
vn -0.4481 0.6926 -0.5652
vn -0.9992 -0.0390 -0.0000
vn -1.0000 -0.0000 -0.0000
vn 0.0016 -1.0000 0.0016
vn -0.0034 -1.0000 0.0034
vn -0.0000 -0.0243 0.9997
vn -0.0000 -0.0000 1.0000
vn -0.0000 -0.0261 0.9997
vn -0.0016 -1.0000 -0.0016
vn 0.0034 -1.0000 -0.0034
vn -0.0000 -1.0000 -0.0000
vn 0.9992 -0.0390 -0.0000
vn 1.0000 -0.0000 -0.0000
vn -0.0000 -0.0261 -0.9997
vn -0.0000 -0.0243 -0.9997
vn -0.0000 -0.0000 -1.0000
vn 0.9958 -0.0908 -0.0126
vn 0.9963 -0.0855 0.0007
vn 0.9954 -0.0962 -0.0010
vn -0.0122 0.0576 -0.9983
vn 0.0010 0.0521 -0.9986
vn 0.0014 0.0621 -0.9981
vn -0.9996 0.0079 -0.0267
vn -0.9981 0.0588 -0.0205
vn -0.9979 0.0647 0.0015
vn -0.0268 -0.1304 0.9911
vn -0.0127 -0.0903 0.9958
vn -0.0004 -0.0967 0.9953
vn 0.0376 -0.9986 0.0366
vn -0.0592 -0.9980 0.0239
vn 0.0243 -0.9980 -0.0588
vn -0.0732 -0.9947 -0.0721
vn 0.0141 -0.0923 0.9956
vn -0.9983 0.0559 0.0145
vn 0.0146 0.0556 -0.9983
vn 0.9909 -0.1321 0.0259
vn 0.9958 -0.0908 0.0126
vn 0.9953 -0.0972 0.0004
vn -0.0267 0.0077 0.9996
vn -0.0122 0.0578 0.9983
vn 0.0008 0.0632 0.9980
vn -0.7492 0.0196 -0.6621
vn -0.9981 0.0584 0.0207
vn -0.9983 0.0559 -0.0145
vn 0.6645 -0.0652 -0.7445
vn -0.0127 -0.0903 -0.9958
vn 0.0140 -0.0925 -0.9956
vn 0.0366 -0.9986 -0.0376
vn -0.0588 -0.9980 -0.0243
vn -0.5625 -0.7070 -0.4285
vn 0.0238 -0.9980 0.0592
vn -0.0721 -0.9947 0.0731
vn -0.4796 -0.6375 0.6030
vn 0.9958 -0.0916 -0.0001
vn 0.0146 0.0556 0.9983
vn -0.9909 -0.1320 -0.0259
vn -0.9958 -0.0908 -0.0126
vn -0.9953 -0.0973 -0.0004
vn 0.0266 0.0076 -0.9996
vn 0.0122 0.0575 -0.9983
vn -0.0008 0.0632 -0.9980
vn 0.7492 0.0196 0.6621
vn 0.9981 0.0584 -0.0207
vn 0.9983 0.0559 0.0145
vn -0.6644 -0.0652 0.7445
vn 0.0127 -0.0903 0.9958
vn -0.0140 -0.0925 0.9956
vn -0.0366 -0.9986 0.0376
vn 0.0588 -0.9980 0.0243
vn 0.5625 -0.7070 0.4285
vn -0.0239 -0.9980 -0.0593
vn 0.0721 -0.9947 -0.0731
vn 0.4796 -0.6375 -0.6030
vn -0.9958 -0.0916 -0.0000
vn -0.0146 0.0556 -0.9983
vn -0.9958 -0.0908 0.0126
vn -0.9963 -0.0855 -0.0007
vn -0.9954 -0.0963 0.0010
vn 0.0122 0.0576 0.9983
vn -0.0009 0.0521 0.9986
vn -0.0014 0.0621 0.9981
vn 0.9996 0.0079 0.0267
vn 0.9981 0.0584 0.0206
vn 0.9979 0.0647 -0.0015
vn 0.0267 -0.1302 -0.9911
vn 0.0127 -0.0903 -0.9958
vn 0.0004 -0.0967 -0.9953
vn -0.0376 -0.9986 -0.0366
vn 0.0592 -0.9980 -0.0239
vn -0.0243 -0.9980 0.0588
vn 0.0732 -0.9947 0.0721
vn -0.0141 -0.0923 -0.9956
vn 0.9983 0.0559 -0.0145
vn -0.0146 0.0556 0.9983
vn 0.9958 -0.0917 -0.0000
vn -0.9958 -0.0917 -0.0000
vt 0.012161 0.862608
vt 0.401672 0.894215
vt 0.012167 0.894395
vt 0.738930 0.637544
vt 0.770625 0.007379
vt 0.770729 0.637544
vt 0.011087 0.004670
vt 0.605569 0.358772
vt 0.011087 0.358772
vt 0.633954 0.637544
vt 0.665648 0.007379
vt 0.665754 0.637544
vt 0.012159 0.749877
vt 0.401653 0.781757
vt 0.012153 0.781665
vt 0.402511 0.898447
vt 0.406213 0.894954
vt 0.401654 0.862517
vt 0.402459 0.858019
vt 0.406193 0.861757
vt 0.669880 0.006541
vt 0.666388 0.002840
vt 0.629432 0.006581
vt 0.633174 0.002846
vt 0.633932 0.007387
vt 0.774855 0.006541
vt 0.771365 0.002840
vt 0.734408 0.006581
vt 0.738150 0.002846
vt 0.738908 0.007387
vt 0.402486 0.785988
vt 0.406185 0.782501
vt 0.402477 0.745559
vt 0.406213 0.749304
vt 0.401667 0.750059
vt 0.670203 0.637542
vt 0.629261 0.637543
vt 0.012154 0.786116
vt 0.012153 0.745183
vt 0.775179 0.637542
vt 0.734237 0.637543
vt 0.012161 0.898847
vt 0.012163 0.857914
vt 0.384349 0.917072
vt 0.030379 0.939699
vt 0.030357 0.917428
vt 0.792136 0.620638
vt 0.791830 0.023428
vt 0.793540 0.024632
vt 0.816101 0.619427
vt 0.793836 0.619438
vt 0.687161 0.620638
vt 0.686854 0.023428
vt 0.012407 0.366267
vt 0.606199 0.719528
vt 0.012407 0.719528
vt 0.029151 0.915731
vt 0.385556 0.915367
vt 0.384312 0.804599
vt 0.030343 0.826979
vt 0.030336 0.804709
vt 0.029131 0.803011
vt 0.385520 0.802895
vt 0.688861 0.619438
vt 0.688564 0.024632
vt 0.711126 0.619427
vt 0.611679 0.024324
vt 0.611519 0.619791
vt 0.384741 0.727787
vt 0.029925 0.727445
vt 0.716655 0.024324
vt 0.716494 0.619791
vt 0.384711 0.840261
vt 0.029921 0.840165
vt 0.844696 0.829099
vt 0.413096 0.859196
vt 0.413096 0.829099
vt 0.844696 0.795490
vt 0.413096 0.825587
vt 0.413096 0.795490
vt 0.413096 0.761885
vt 0.844696 0.791983
vt 0.413096 0.791983
vt 0.413096 0.728276
vt 0.844696 0.758374
vt 0.413096 0.758374
vt 0.107983 0.983687
vt 0.111358 0.984368
vt 0.108613 0.987108
vt 0.082406 0.983545
vt 0.081894 0.986785
vt 0.079217 0.984090
vt 0.108067 0.957990
vt 0.108635 0.954717
vt 0.111358 0.957486
vt 0.082448 0.957934
vt 0.079161 0.957325
vt 0.081842 0.954645
vt 0.413096 0.724762
vt 0.844696 0.728276
vt 0.844696 0.761885
vt 0.844696 0.825587
vt 0.858557 0.437483
vt 0.888655 0.005879
vt 0.888655 0.437483
vt 0.892166 0.437483
vt 0.922263 0.005879
vt 0.922263 0.437483
vt 0.955869 0.437483
vt 0.925771 0.005879
vt 0.955869 0.005879
vt 0.989477 0.437483
vt 0.959380 0.005879
vt 0.989477 0.005879
vt 0.221686 0.960258
vt 0.222316 0.956836
vt 0.225061 0.959577
vt 0.196110 0.960400
vt 0.192920 0.959855
vt 0.195597 0.957160
vt 0.221771 0.985955
vt 0.225061 0.986459
vt 0.222338 0.989228
vt 0.196151 0.986011
vt 0.195545 0.989300
vt 0.192865 0.986620
vt 0.992991 0.437483
vt 0.992991 0.005879
vt 0.959380 0.437483
vt 0.892166 0.005879
vt 0.991346 0.441373
vt 0.961249 0.872978
vt 0.961249 0.441373
vt 0.957737 0.441373
vt 0.927640 0.872978
vt 0.927640 0.441373
vt 0.894035 0.441373
vt 0.924132 0.872978
vt 0.894035 0.872978
vt 0.860426 0.441373
vt 0.890524 0.872978
vt 0.860426 0.872978
vt 0.054205 0.960486
vt 0.054834 0.957064
vt 0.057579 0.959805
vt 0.028628 0.960627
vt 0.025438 0.960082
vt 0.028115 0.957387
vt 0.054289 0.986182
vt 0.057579 0.986686
vt 0.054856 0.989456
vt 0.028669 0.986238
vt 0.028063 0.989527
vt 0.025383 0.986847
vt 0.856912 0.441373
vt 0.856912 0.872978
vt 0.890524 0.441373
vt 0.957737 0.872978
vt 0.414117 0.893331
vt 0.845719 0.863233
vt 0.845719 0.893331
vt 0.414117 0.926939
vt 0.845719 0.896842
vt 0.845719 0.926939
vt 0.845719 0.960544
vt 0.414117 0.930447
vt 0.845719 0.930447
vt 0.845719 0.994153
vt 0.414117 0.964055
vt 0.845719 0.964055
vt 0.163985 0.985789
vt 0.167323 0.986440
vt 0.164631 0.989129
vt 0.138369 0.985797
vt 0.137835 0.989092
vt 0.135147 0.986348
vt 0.164045 0.960168
vt 0.164650 0.956930
vt 0.167323 0.959689
vt 0.138385 0.960134
vt 0.135092 0.959522
vt 0.137781 0.956836
vt 0.845719 0.997667
vt 0.414117 0.994153
vt 0.414117 0.960544
vt 0.414117 0.896842
vt 0.605569 0.004670
vt 0.384371 0.939343
vt 0.815803 0.024621
vt 0.606199 0.366267
vt 0.384318 0.826869
vt 0.710827 0.024621
vt 0.844696 0.859196
vt 0.844696 0.724763
vt 0.858557 0.005879
vt 0.925771 0.437483
vt 0.991346 0.872978
vt 0.924132 0.441373
vt 0.414117 0.863233
vt 0.414117 0.997667
s 1
usemtl wooden_table_02
f 14/1/1 1/2/2 12/3/3
f 19/4/4 11/5/5 17/6/6
f 8/7/7 13/8/7 18/9/7
f 5/10/8 6/11/9 2/12/10
f 9/13/11 16/14/12 7/15/13
f 22/16/14 1/2/2 2/17/10
f 3/18/15 37/19/16 5/20/8
f 21/21/17 6/11/9 7/22/13
f 38/23/18 9/24/11 10/25/19
f 24/26/20 11/5/5 12/27/3
f 40/28/21 14/29/1 15/30/22
f 23/31/23 16/14/12 17/32/6
f 39/33/24 19/34/4 20/35/25
f 22/36/14 6/11/9 21/21/17
f 3/18/15 2/17/10 1/2/2
f 38/23/18 5/10/8 37/37/16
f 7/22/13 10/25/19 9/24/11
f 21/38/17 16/14/12 23/31/23
f 39/33/24 9/13/11 38/39/18
f 17/32/6 20/35/25 19/34/4
f 23/40/23 11/5/5 24/26/20
f 40/28/21 19/4/4 39/41/24
f 12/27/3 15/30/22 14/29/1
f 24/42/20 1/2/2 22/16/14
f 37/19/16 14/1/1 40/43/21
f 29/44/26 28/45/27 34/46/27
f 35/47/28 24/26/20 33/48/29
f 34/49/30 27/50/31 36/51/32
f 30/52/33 21/21/17 31/53/34
f 27/54/35 26/55/35 25/56/35
f 33/57/29 22/16/14 30/58/33
f 36/59/36 25/60/37 32/61/37
f 31/62/34 23/31/23 35/63/28
f 29/64/38 31/53/34 32/65/39
f 36/59/36 31/62/34 35/63/28
f 36/51/32 33/48/29 34/49/30
f 29/44/26 33/57/29 30/58/33
f 32/65/39 26/66/40 29/64/38
f 8/67/7 37/37/16 4/68/7
f 18/69/7 38/39/18 8/70/7
f 13/71/7 39/41/24 18/72/7
f 4/73/7 40/43/21 13/74/7
f 54/75/41 42/76/42 53/77/43
f 59/78/44 52/79/45 58/80/46
f 48/81/47 60/82/48 57/83/49
f 43/84/50 50/85/51 47/86/52
f 41/87/53 42/88/42 43/89/50
f 46/90/54 47/91/52 48/92/47
f 51/93/55 52/94/45 53/95/43
f 56/96/56 57/97/49 58/98/46
f 41/87/53 47/91/52 46/90/54
f 42/99/42 44/100/57 43/84/50
f 49/101/58 47/86/52 50/85/51
f 56/96/56 48/92/47 57/97/49
f 58/80/46 60/82/48 59/78/44
f 56/96/56 52/94/45 51/93/55
f 53/77/43 55/102/59 54/75/41
f 41/87/53 53/95/43 42/88/42
f 46/90/54 51/93/55 41/87/53
f 62/103/60 74/104/61 73/105/62
f 72/106/63 79/107/64 78/108/65
f 68/109/66 80/110/67 69/111/68
f 63/112/69 70/113/70 64/114/71
f 61/115/72 63/116/69 62/117/60
f 66/118/73 68/119/66 67/120/74
f 71/121/75 73/122/62 72/123/63
f 76/124/76 78/125/65 77/126/77
f 67/120/74 61/115/72 66/118/73
f 62/127/60 64/114/71 65/128/78
f 69/111/68 67/129/74 68/109/66
f 76/124/76 68/119/66 66/118/73
f 80/110/67 78/108/65 79/107/64
f 72/123/63 76/124/76 71/121/75
f 75/130/79 73/105/62 74/104/61
f 61/115/72 73/122/62 71/121/75
f 66/118/73 71/121/75 76/124/76
f 82/131/80 94/132/81 93/133/82
f 92/134/83 99/135/84 98/136/85
f 88/137/86 100/138/87 89/139/88
f 83/140/89 90/141/90 84/142/91
f 81/143/92 83/144/89 82/145/80
f 86/146/93 88/147/86 87/148/94
f 91/149/95 93/150/82 92/151/83
f 96/152/96 98/153/85 97/154/97
f 87/148/94 81/143/92 86/146/93
f 82/155/80 84/142/91 85/156/98
f 89/139/88 87/157/94 88/137/86
f 96/152/96 88/147/86 86/146/93
f 100/138/87 98/136/85 99/135/84
f 92/151/83 96/152/96 91/149/95
f 95/158/99 93/133/82 94/132/81
f 81/143/92 93/150/82 91/149/95
f 86/146/93 91/149/95 96/152/96
f 114/159/100 102/160/101 113/161/102
f 119/162/103 112/163/104 118/164/105
f 108/165/106 120/166/107 117/167/108
f 103/168/109 110/169/110 107/170/111
f 101/171/112 102/172/101 103/173/109
f 106/174/113 107/175/111 108/176/106
f 111/177/114 112/178/104 113/179/102
f 116/180/115 117/181/108 118/182/105
f 101/171/112 107/175/111 106/174/113
f 102/183/101 104/184/116 103/168/109
f 109/185/117 107/170/111 110/169/110
f 116/180/115 108/176/106 117/181/108
f 118/164/105 120/166/107 119/162/103
f 116/180/115 112/178/104 111/177/114
f 113/161/102 115/186/118 114/159/100
f 101/171/112 113/179/102 102/172/101
f 106/174/113 111/177/114 101/171/112
f 14/1/1 3/18/15 1/2/2
f 19/4/4 15/30/22 11/5/5
f 8/7/7 4/187/7 13/8/7
f 5/10/8 10/25/19 6/11/9
f 9/13/11 20/35/25 16/14/12
f 22/36/14 2/12/10 6/11/9
f 3/18/15 5/20/8 2/17/10
f 38/23/18 10/25/19 5/10/8
f 7/22/13 6/11/9 10/25/19
f 21/38/17 7/15/13 16/14/12
f 39/33/24 20/35/25 9/13/11
f 17/32/6 16/14/12 20/35/25
f 23/40/23 17/6/6 11/5/5
f 40/28/21 15/30/22 19/4/4
f 12/27/3 11/5/5 15/30/22
f 24/42/20 12/3/3 1/2/2
f 37/19/16 3/18/15 14/1/1
f 29/44/26 26/188/27 28/45/27
f 35/47/28 23/40/23 24/26/20
f 34/49/30 28/189/31 27/50/31
f 30/52/33 22/36/14 21/21/17
f 27/54/35 28/190/35 26/55/35
f 33/57/29 24/42/20 22/16/14
f 36/59/36 27/191/37 25/60/37
f 31/62/34 21/38/17 23/31/23
f 29/64/38 30/52/33 31/53/34
f 36/59/36 32/61/37 31/62/34
f 36/51/32 35/47/28 33/48/29
f 29/44/26 34/46/27 33/57/29
f 32/65/39 25/192/40 26/66/40
f 8/67/7 38/23/18 37/37/16
f 18/69/7 39/33/24 38/39/18
f 13/71/7 40/28/21 39/41/24
f 4/73/7 37/19/16 40/43/21
f 54/75/41 45/193/119 42/76/42
f 59/78/44 55/102/59 52/79/45
f 48/81/47 49/101/58 60/82/48
f 43/84/50 44/100/57 50/85/51
f 41/87/53 43/89/50 47/91/52
f 42/99/42 45/194/119 44/100/57
f 49/101/58 48/81/47 47/86/52
f 56/96/56 46/90/54 48/92/47
f 58/80/46 57/83/49 60/82/48
f 56/96/56 58/98/46 52/94/45
f 53/77/43 52/79/45 55/102/59
f 41/87/53 51/93/55 53/95/43
f 46/90/54 56/96/56 51/93/55
f 62/103/60 65/195/78 74/104/61
f 72/106/63 75/130/79 79/107/64
f 68/109/66 77/196/77 80/110/67
f 63/112/69 67/129/74 70/113/70
f 67/120/74 63/116/69 61/115/72
f 62/127/60 63/112/69 64/114/71
f 69/111/68 70/113/70 67/129/74
f 76/124/76 77/126/77 68/119/66
f 80/110/67 77/196/77 78/108/65
f 72/123/63 78/125/65 76/124/76
f 75/130/79 72/106/63 73/105/62
f 61/115/72 62/117/60 73/122/62
f 66/118/73 61/115/72 71/121/75
f 82/131/80 85/197/98 94/132/81
f 92/134/83 95/158/99 99/135/84
f 88/137/86 97/198/97 100/138/87
f 83/140/89 87/157/94 90/141/90
f 87/148/94 83/144/89 81/143/92
f 82/155/80 83/140/89 84/142/91
f 89/139/88 90/141/90 87/157/94
f 96/152/96 97/154/97 88/147/86
f 100/138/87 97/198/97 98/136/85
f 92/151/83 98/153/85 96/152/96
f 95/158/99 92/134/83 93/133/82
f 81/143/92 82/145/80 93/150/82
f 86/146/93 81/143/92 91/149/95
f 114/159/100 105/199/120 102/160/101
f 119/162/103 115/186/118 112/163/104
f 108/165/106 109/185/117 120/166/107
f 103/168/109 104/184/116 110/169/110
f 101/171/112 103/173/109 107/175/111
f 102/183/101 105/200/120 104/184/116
f 109/185/117 108/165/106 107/170/111
f 116/180/115 106/174/113 108/176/106
f 118/164/105 117/167/108 120/166/107
f 116/180/115 118/182/105 112/178/104
f 113/161/102 112/163/104 115/186/118
f 101/171/112 111/177/114 113/179/102
f 106/174/113 116/180/115 111/177/114
